<?xml version="1.0" encoding="utf-8"?>
<!-- Generator: Adobe Illustrator 26.0.1, SVG Export Plug-In . SVG Version: 6.00 Build 0)  -->
<svg version="1.1" xmlns="http://www.w3.org/2000/svg" xmlns:xlink="http://www.w3.org/1999/xlink" x="0px" y="0px"
	 viewBox="0 0 2520.03 2520.03" style="enable-background:new 0 0 2520.03 2520.03;" xml:space="preserve">
<style type="text/css">
	.st0{fill:#FFFFFF;}
	.st1{fill:#E7ECFF;}
	.st2{clip-path:url(#SVGID_00000100357993172325666610000007466715716109639824_);}
	.st3{fill:url(#SVGID_00000181070654338816736330000004222585909761028511_);}
	.st4{fill:url(#SVGID_00000024003635095307658080000006747912557961334670_);}
	.st5{fill:url(#SVGID_00000021121265680873086530000011415452493876657548_);}
	.st6{opacity:0.2;fill:#A492F9;}
	.st7{fill:#C5ABE3;}
	.st8{opacity:0.5;fill:#C5ABE3;}
	.st9{fill:#4F63F9;}
	.st10{fill:#93C2FF;}
	.st11{fill:#4B81EE;}
	.st12{fill:url(#SVGID_00000035529547793350701450000015908650090858547363_);}
	.st13{opacity:0.5;fill:#E392AD;}
	.st14{opacity:0.5;fill:#FFBB9A;}
	.st15{fill:url(#SVGID_00000067922423399928573640000006749898671345818520_);}
	.st16{fill:url(#SVGID_00000153694030597236834530000005644136070335048348_);}
	.st17{fill:url(#SVGID_00000130635336732878748250000007591111220664985763_);}
	.st18{fill:#E392AD;}
	.st19{fill:url(#SVGID_00000023241841322823300900000000909015649451104387_);}
	.st20{fill:url(#SVGID_00000142151896937089554940000000101909890589622165_);}
	.st21{fill:url(#SVGID_00000054227477630062606060000010624841496072693678_);}
	.st22{fill:#D07CAD;}
	.st23{fill:#B588AD;}
	.st24{fill:url(#SVGID_00000153702308818389505360000015186363637456177570_);}
	.st25{fill:url(#SVGID_00000059269540730264592230000007756248399161748628_);}
	.st26{opacity:0.5;fill:url(#SVGID_00000119820133120335678310000010234203784430458287_);}
	.st27{fill:#FFC4B1;}
	.st28{fill:#FFE4DB;}
	.st29{opacity:0.3;fill:#FFFFFF;}
	.st30{opacity:0.5;fill:url(#SVGID_00000063604884127706949840000005890628130849555599_);}
	.st31{opacity:0.5;fill:url(#SVGID_00000078746883539292794570000012394122671897298612_);}
	.st32{opacity:0.5;fill:url(#SVGID_00000172416203832246645320000003110555312498306446_);}
	.st33{fill:url(#SVGID_00000158732934464720324570000014980143458195166907_);}
	.st34{fill:url(#SVGID_00000109010052050662326070000016908714761552213675_);}
	.st35{fill:url(#SVGID_00000097471133540304169380000007622842488554077575_);}
	.st36{fill:url(#SVGID_00000005985165666959804520000002112461539019293609_);}
	.st37{fill:url(#SVGID_00000013188752106345907540000010333570227929061039_);}
	.st38{fill:url(#SVGID_00000144338254961660696600000017414731039417610162_);}
	.st39{opacity:0.3;fill:#E392AD;}
	.st40{fill:#C2096F;}
	.st41{fill:url(#SVGID_00000034077902798711107890000011251832395171998112_);}
	.st42{fill:#A4A6FF;}
	.st43{fill:url(#SVGID_00000060741264806488797540000003595734290290280878_);}
	.st44{fill:#E33D6F;}
	.st45{fill:url(#SVGID_00000109713214047012582000000011687829342707487893_);}
	.st46{opacity:0.8;fill:url(#SVGID_00000169545238942855284770000005924957870944329390_);}
	.st47{opacity:0.8;fill:url(#SVGID_00000136403144165771461870000011677974818809006722_);}
	.st48{opacity:0.8;fill:url(#SVGID_00000070097884656775633580000004313481835088465794_);}
	.st49{opacity:0.8;fill:url(#SVGID_00000102524771015687905980000012658216919645375383_);}
	.st50{opacity:0.8;fill:url(#SVGID_00000116222892765720096990000016919536857851684540_);}
	.st51{opacity:0.8;fill:url(#SVGID_00000090283995292255975690000017737927335608059011_);}
	.st52{opacity:0.5;fill:url(#SVGID_00000066487193528823452320000001266671076175025311_);}
	.st53{opacity:0.8;fill:url(#SVGID_00000130605070230558549590000013175644051445858732_);}
	.st54{opacity:0.8;fill:url(#SVGID_00000113319498824709974800000010480131370541937566_);}
	.st55{opacity:0.8;fill:url(#SVGID_00000009570851351964478360000013443553676725605522_);}
	.st56{opacity:0.8;fill:#E392AD;}
	.st57{fill:#391861;}
	.st58{fill:#FEB1C8;}
	.st59{opacity:0.8;fill:url(#SVGID_00000024689550242663228000000013431729522352617657_);}
	.st60{opacity:0.2;fill:#FFFFFF;}
	.st61{fill:url(#SVGID_00000060724794732379180960000017523835298843953332_);}
	.st62{fill:url(#SVGID_00000018236922920986295610000012059972906492787882_);}
	.st63{fill:url(#SVGID_00000018930249924810162280000011715488237465144757_);}
	.st64{fill:url(#SVGID_00000134210081693971519450000009230809434816741296_);}
	.st65{fill:url(#SVGID_00000041991486367812306340000008041322813506621113_);}
	.st66{fill:url(#SVGID_00000044866376545591402880000009256259432627045308_);}
	.st67{fill:url(#SVGID_00000065762684600564048710000018264992465224998295_);}
	.st68{opacity:0.6;fill:#BF7988;}
	.st69{fill:url(#SVGID_00000076595590042587927330000013313732508854427309_);}
	.st70{fill:#FFE4EC;}
	.st71{fill:#7F6186;}
	.st72{fill:url(#SVGID_00000148648167591052460960000017330712141465757086_);}
	.st73{fill:#6C2A51;}
	.st74{fill:url(#SVGID_00000060741063592250290520000010176622630521970573_);}
	.st75{fill:url(#SVGID_00000009573660470518330450000004338360372922073501_);}
	.st76{fill:url(#SVGID_00000137842982021505022940000011286788202748088192_);}
	.st77{fill:#CE7988;}
	.st78{fill:url(#SVGID_00000036232854346822594000000009498385110014108316_);}
	.st79{fill:url(#SVGID_00000048484522731612536670000010152060554016186031_);}
	.st80{fill:url(#SVGID_00000003822654667973731440000006824698756087094400_);}
	.st81{opacity:0.4;fill:url(#SVGID_00000023988471230179306940000008218318996883060353_);}
	.st82{fill:#8075BA;}
	.st83{opacity:0.5;fill:#E15153;}
	.st84{fill:url(#SVGID_00000000906659612013024790000013404726641586809740_);}
	.st85{fill:#CFC7B8;}
	.st86{fill:url(#SVGID_00000093872618140522565990000002923265259771386035_);}
	.st87{fill:#382A8D;}
	.st88{fill:url(#SVGID_00000093161078650290861370000003228923880945659307_);}
	.st89{fill:#5CF1FF;}
	.st90{fill:#FAFBF9;}
	.st91{fill:url(#SVGID_00000170273081922040297650000015414465042898609307_);}
	.st92{opacity:0.3;fill:url(#SVGID_00000156545297580335057250000017202444311206728625_);}
	.st93{fill:url(#SVGID_00000152963176177567281950000006595953712463351467_);}
	.st94{opacity:0.5;fill:#E7ECFF;}
	.st95{fill:#D1A1C8;}
	.st96{fill:url(#SVGID_00000108995522809174937360000009326108680828128133_);}
	.st97{opacity:0.5;fill:#FEB1C8;}
	.st98{fill:url(#SVGID_00000116933107470038773470000006326714526089348230_);}
	.st99{fill:url(#SVGID_00000123423145702319138440000013557898250288073873_);}
	.st100{fill:url(#SVGID_00000181067255697229882810000016091685192121009053_);}
	.st101{fill:url(#SVGID_00000136389305549154949460000001743307650637179829_);}
	.st102{fill:url(#SVGID_00000070820839093378641480000015174111058349138876_);}
	.st103{fill:url(#SVGID_00000119829093168019557280000017169715942687513255_);}
	.st104{fill:url(#SVGID_00000080895161587919923610000014394550970488149159_);}
	.st105{fill:url(#SVGID_00000130648107745815891590000003542047170594579849_);}
	.st106{opacity:0.5;fill:#FFFFFF;}
	.st107{opacity:0.2;fill:#E392AD;}
	.st108{fill:#A46BAD;}
	.st109{fill:#5E4FB8;}
	.st110{fill:#6A5CD4;}
	.st111{fill:#4BFFFF;}
	.st112{opacity:0.8;fill:#B892AD;}
</style>
<g id="background">
	<rect y="0" class="st0" width="2520.03" height="2520.03"/>
	<g>
		<path class="st1" d="M1340.67,398.88C890.88,313.42,437.64,994.74,304.34,1629.76s943.79,714.19,1428.85,639.8
			c273.78-41.99,291.4-608.71,221.23-1039.32c-54.15-332.3-170.11-530.99-201.65-671.69
			C1680.36,235.49,1517.31,432.44,1340.67,398.88z"/>
		<path class="st1" d="M1820,514.01c-51.46,43.09,208.12,634.57,183.76,1053.73c-24.37,419.16,364.61,302.78,335.94-302.26
			S1924.01,384.48,1820,514.01C1715.99,643.54,1871.46,470.92,1820,514.01z"/>
		<path class="st1" d="M447.19,996.63c-159.63-5.48-111.08-509.81,0-671.03c111.09-161.22,452.04-5.62,495.49,52.66
			c43.45,58.29-287.65,355.61-367.2,485.08C495.92,992.82,488.76,998.06,447.19,996.63z"/>
	</g>
</g>
<g id="illustration">
	<g>
		<defs>
			<rect id="SVGID_1_" y="0" width="2520.03" height="2520.03"/>
		</defs>
		<clipPath id="SVGID_00000136375480035695346610000002352162780280285326_">
			<use xlink:href="#SVGID_1_"  style="overflow:visible;"/>
		</clipPath>
		<g style="clip-path:url(#SVGID_00000136375480035695346610000002352162780280285326_);">
			
				<linearGradient id="SVGID_00000016065858098967923200000003008522499195834247_" gradientUnits="userSpaceOnUse" x1="1239.604" y1="2520.0315" x2="1239.604" y2="2126.8479">
				<stop  offset="0" style="stop-color:#C50B79"/>
				<stop  offset="1" style="stop-color:#C01160"/>
			</linearGradient>
			<path style="fill:url(#SVGID_00000016065858098967923200000003008522499195834247_);" d="M899.61,2411.73v108.3h661.68
				c0,0,0.94-221.07,17.98-360.72C1596.31,2019.67,941.4,2373.33,899.61,2411.73z"/>
			<g>
				
					<linearGradient id="SVGID_00000063624253462226201850000006834677686287105194_" gradientUnits="userSpaceOnUse" x1="1816.99" y1="991.4995" x2="1816.99" y2="290.2431">
					<stop  offset="0" style="stop-color:#7E8EFF"/>
					<stop  offset="1" style="stop-color:#7096FF"/>
				</linearGradient>
				<path style="fill:url(#SVGID_00000063624253462226201850000006834677686287105194_);" d="M1493.35,950.67l575.67,40.83
					c0,0,21.49-441.64,71.62-683.58c0,0-360.5-39.78-613.56,0C1527.07,307.92,1495.43,603.45,1493.35,950.67z"/>
				
					<linearGradient id="SVGID_00000095323304521909703620000008293863853238825601_" gradientUnits="userSpaceOnUse" x1="2111.7979" y1="991.4995" x2="2111.7979" y2="307.9214">
					<stop  offset="0" style="stop-color:#26258A"/>
					<stop  offset="1" style="stop-color:#3C2C95"/>
				</linearGradient>
				<path style="fill:url(#SVGID_00000095323304521909703620000008293863853238825601_);" d="M2154.58,326.13l-13.95-18.21
					c0,0-66.85,348.55-71.62,683.58h14.32C2083.34,991.5,2082.96,686.62,2154.58,326.13z"/>
				<path class="st6" d="M1557.26,715.13c-48.17,23.58-34.27-363.45,0-396.87s530.85-9.55,545.97,3.98
					c15.12,13.53-7.96,167.12-23.87,174.28c-15.92,7.16-71.55,24.46-151.17,120.86c-79.61,96.4-174.31,13.35-224.45,5.14
					C1653.6,614.29,1570.73,708.53,1557.26,715.13z"/>
				<path class="st0" d="M1956.01,453.49c-54.06-26.89-127.77,71.04-83.78,150.14c43.99,79.1,118-29.92,124.36-70.11
					C2002.96,493.33,1976.7,463.78,1956.01,453.49z"/>
				<path class="st7" d="M2040.36,950.67c-12.69,35.55-357.31-43.53-478.67-22.84c-121.36,20.7-0.53-164.98,48.88-226.53
					c49.41-61.55,117.84,82.28,178.32,114.62c60.48,32.33,196.48-263.93,261.02-305.94C2114.46,467.96,2052.3,917.24,2040.36,950.67
					z"/>
				<path class="st8" d="M1821.12,933.66c-52.52-35.02,122.11-306.33,185.2-337.2c63.09-30.87,35.64,220.63,8.18,294.82
					C1987.04,965.49,1821.12,933.66,1821.12,933.66z"/>
				<path class="st9" d="M1570.72,557.78c-30.24,4.77,32.67-19.71,135.7-65.16c103.04-45.45,116.57,3.89,169.09,21.39
					c52.52,17.51,97.09-8.98,130.51-8.07c33.42,0.91-45.36,20.01-184.63,18.41C1682.13,522.77,1570.72,557.78,1570.72,557.78z"/>
				<path class="st9" d="M1688.67,584.34c-27.9-10.33,116.74-28.12,194.83-46.61c78.09-18.49,88.75,14.86,96.9,16.39
					c8.16,1.53-106.58-2.65-179.56,4.41C1727.88,565.59,1695.91,587.02,1688.67,584.34z"/>
				<path class="st10" d="M1522.86,371.69c12.36,30.56,14.92-60.38,130.6-71.23c115.68-10.86,427.62,20.67,452.96,28.38
					c25.34,7.72,30.11-17.75,30.11-17.75s-303.6-22.68-432.12-17.91c-128.52,4.77-170.99,12.31-174.68,17.51
					S1522.86,371.69,1522.86,371.69z"/>
			</g>
			<path class="st11" d="M1777.69,1238.64c-18.24,6.72-27.74,89.49-6.68,141.21c21.06,51.73,77.94,100.92,115.76,118.57
				c37.83,17.65-0.8-168.71-38.2-213.27C1811.17,1240.59,1777.69,1238.64,1777.69,1238.64z"/>
			
				<linearGradient id="SVGID_00000042713207076347954100000007227301555402990232_" gradientUnits="userSpaceOnUse" x1="1220.5593" y1="2471.3135" x2="1220.5593" y2="1020.3929">
				<stop  offset="0" style="stop-color:#FF6686"/>
				<stop  offset="1" style="stop-color:#FF7C89"/>
			</linearGradient>
			<path style="fill:url(#SVGID_00000042713207076347954100000007227301555402990232_);" d="M1083.67,1078.98
				c-18.95,14.38-54.37,85.21-110.47,103.11c-56.1,17.91-96.77-11.66-121.2,26.99c-24.43,38.66,128.36,316.79,151.04,612.83
				c22.68,296.04-108.63,626.69-108.63,626.69s177.35,15.76,250.68,21.49c163.14,12.73,355.72-77.59,446.44-119.37
				c4.41-52.72-57.3-892.89-79.58-1080.7c-22.28-187.81-19.1-192.58-108.23-210.09c-89.13-17.51-150.23-39.55-150.23-39.55
				L1083.67,1078.98z"/>
			<path class="st13" d="M1081.99,2437.17c-13.3-5.27,98.05-125.84,154.58-236.85c56.53-111.01,93.54-238.74,105.48-244.71
				c11.94-5.97,88.38,242.32,101.49,352.14C1456.64,2417.57,1254.06,2486.61,1081.99,2437.17z"/>
			<path class="st14" d="M1085.2,1230.23c-3.97,7.75,27.12,208.43,38.62,222.07c11.49,13.63,97.48-12.28,165.7-76.04
				c68.22-63.76,35.01-167.34,21.88-171.4c-13.13-4.06-32.48,72.13-80.37,82.45C1151.91,1304.36,1092.35,1216.27,1085.2,1230.23z"/>
			
				<linearGradient id="SVGID_00000163769365423813753670000001676749620364593058_" gradientUnits="userSpaceOnUse" x1="1173.6309" y1="2279.4971" x2="1173.6309" y2="1166.6934">
				<stop  offset="0.016" style="stop-color:#FFFFFF"/>
				<stop  offset="0.9916" style="stop-color:#EA8CC1"/>
			</linearGradient>
			<path style="fill:url(#SVGID_00000163769365423813753670000001676749620364593058_);" d="M1069.27,1166.69
				c0,0,75.1,694.62,139.92,861.73c64.82,167.12,78,224.42,64.25,248.29c-13.75,23.87-148.19-101.99-178.85-530.86
				C1063.92,1316.98,1069.27,1166.69,1069.27,1166.69z"/>
			
				<linearGradient id="SVGID_00000171681134102680235510000009387498111822513588_" gradientUnits="userSpaceOnUse" x1="1266.0591" y1="2450.1853" x2="1266.0591" y2="1252.5219">
				<stop  offset="0.016" style="stop-color:#FFFFFF"/>
				<stop  offset="0.9916" style="stop-color:#EA8CC1"/>
			</linearGradient>
			<path style="fill:url(#SVGID_00000171681134102680235510000009387498111822513588_);" d="M1151.91,2450.15
				c-72.55,3.61,135.46-273.7,203.98-584.07c68.53-310.36-12.08-613.56-12.08-613.56s87.34,312.11,34.63,686.06
				C1325.74,2312.53,1200.9,2447.71,1151.91,2450.15z"/>
			
				<linearGradient id="SVGID_00000060716112927312509690000009542245649793314488_" gradientUnits="userSpaceOnUse" x1="1493.3237" y1="2399.5906" x2="1493.3237" y2="1017.9586">
				<stop  offset="0" style="stop-color:#2B2583"/>
				<stop  offset="1" style="stop-color:#482C97"/>
			</linearGradient>
			<path style="fill:url(#SVGID_00000060716112927312509690000009542245649793314488_);" d="M1706.12,1720.43
				c-21.48,3.59-106.22-87.13-144.46-184.97c0,0,8.82,77.55,24.7,185.98c0,0.13,0.06,0.19,0,0.25c0.06,0.13,0.06,0.19,0.06,0.19
				c3.84,26.52,8.19,55,12.92,84.55c0,0,0,0.06,0,0.19c8.51,53.24,18.27,110.19,29.17,166.89c41.83,217.29-5.92,290.06-23.81,304.42
				c-17.96,14.3-99.1,27.47-201.79,95.51c-38.56,25.58-61.93,30.74-75.29,22.62c-0.95-0.57-1.83-1.2-2.71-1.95
				c-4.16-3.47-7.18-8.44-9.2-14.74c-0.06-0.25-0.13-0.5-0.19-0.76c-6.99-22.49-2.14-60.42,5.04-100.68
				c15.5-87.13,80.01-339.01,72.83-631.46c-7.18-292.45-87.76-544.33-99.67-570.03c-11.97-25.64-33.71-32.63-33.71-32.63
				l-6.55-23.37c16.57-5.04,125.56,34.52,137.53,32.63c11.91-1.89,136.08-44.79,225.23-33.08c0,0,34.97,20.03,37.36,175.27
				c0,0,40.64,85.93,66.84,142C1746.7,1393.39,1727.61,1716.9,1706.12,1720.43z"/>
			<path class="st18" d="M1260.02,1043.79c0,0,31.5,48,57.76,144.68c26.26,96.68,44.84,868.68,44.84,868.68
				s52.98-292.73,34.74-537.24c-18.24-244.51-78.78-445.33-96.29-476.13c-17.51-30.8-47.57-23.39-47.57-23.39L1260.02,1043.79z"/>
			
				<linearGradient id="SVGID_00000075154323362512298680000005741202106923424415_" gradientUnits="userSpaceOnUse" x1="899.6028" y1="2450.1504" x2="899.6028" y2="1053.0315">
				<stop  offset="0" style="stop-color:#2B2583"/>
				<stop  offset="1" style="stop-color:#482C97"/>
			</linearGradient>
			<path style="fill:url(#SVGID_00000075154323362512298680000005741202106923424415_);" d="M1061,2335.94
				c-5.86,17.77-12.54,31.94-20.16,41.83c-57.33,74.47-163.42,74.97-209.73,71.13c-0.38,0-0.69,0-0.95-0.06h-0.06
				c-13.48-1.13-21.61-2.65-21.61-2.65c8.57-12.73,16.63-26.96,24.38-42.53c0.06-0.13,0.13-0.32,0.19-0.44
				c5.67-11.4,11.15-23.5,16.32-36.23c43.66-105.97,73.02-254.4,92.49-393.31c0.06-0.44,0.13-0.88,0.19-1.32
				c2.77-19.72,5.36-39.19,7.69-58.28c21.29-171.43,27.72-315.51,28.16-326.66c-1.83,14.74-30.62,250.87-56.01,277.46
				c-26.27,27.47-174.32,82.34-186.23,69.24c-11.97-13.1-57.33-131.29-23.88-282.94c33.39-151.58,124.11-298.37,124.11-298.37
				c-25.01-91.92-19.47-143.7-19.47-143.7c85.18-56.2,175.08-45.74,194.17-57.65c19.09-11.97,59.66-103.45,68.36-98.22l4.73,25.7
				c0,0-10.21,23.18-12.6,43.47c-2.39,20.29-4.79,211.24,14.3,427.71C1102.58,1744.55,1113.29,2179.2,1061,2335.94z"/>
			<path class="st18" d="M1078.95,1053.28c0,0-29.29,92.89-27.34,211.32c1.96,118.43,20.34,742.34,22.29,904.68
				c1.95,162.34-53.42,230.28-53.42,230.28s77.28-29.74,95.77-285.99c18.49-256.25-43.51-842.41-46.76-925.11
				c-3.25-82.7,21.25-103.26,21.25-103.26L1078.95,1053.28z"/>
			
				<linearGradient id="SVGID_00000034768028104814781920000003107377482428684450_" gradientUnits="userSpaceOnUse" x1="1001.5056" y1="2237.3323" x2="1001.5056" y2="1053.2767">
				<stop  offset="0" style="stop-color:#38328A"/>
				<stop  offset="1" style="stop-color:#5C43A2"/>
			</linearGradient>
			<path style="fill:url(#SVGID_00000034768028104814781920000003107377482428684450_);" d="M1078.95,1053.28
				c0,0-20.73,26.87-58.47,87.99s-96.42,140.52-96.42,150.07c0,21.43,37.14,21.43,51.68,28.03c14.53,6.6-24.19,64.86-27.21,105.45
				c-3.01,40.59,61.67,420.97,83.16,552.28c21.49,131.31,35.21,257.98,37.23,260.23c2.02,2.25,14.5-436.89,1.17-674.44
				c-13.33-237.55-29.14-384.37-16.46-444.06C1066.3,1059.14,1078.95,1053.28,1078.95,1053.28z"/>
			
				<linearGradient id="SVGID_00000079476681301800609610000009650622618472657543_" gradientUnits="userSpaceOnUse" x1="1393.6052" y1="2201.853" x2="1393.6052" y2="1022.3724">
				<stop  offset="0" style="stop-color:#38328A"/>
				<stop  offset="1" style="stop-color:#5C43A2"/>
			</linearGradient>
			<path style="fill:url(#SVGID_00000079476681301800609610000009650622618472657543_);" d="M1276.99,1022.37
				c0,0,92.52,34.38,168.12,94.86s62.87,82.64,63.66,91.85c0.8,9.21-53.32,40.25-57.3,43.43c-3.98,3.18,42.89,67.64,57.66,152
				c14.76,84.35-124.5,649.37-139.62,692.35c-15.12,42.97-33.71,104.99-33.71,104.99s74.29-314.22,75.88-613.47
				C1413.27,1289.13,1295.09,1072.34,1276.99,1022.37z"/>
			<path class="st22" d="M943.75,1962.38c-5.19,40.75,138.24,4.42,257.84-317.07c42.52-114.3,137.67-52.18,184.63-73.67
				c46.95-21.49,57.32-140.86,57.32-140.86s-157.75-6.84-228.5,33.36c-70.75,40.19-267.33,251.54-267.33,251.54l-0.12,199.17
				L943.75,1962.38z"/>
			<path class="st11" d="M935,1870.86c1.11,78.53,114.6-13.13,128.32-140.86c9.34-86.91,4.18-131.31,4.18-131.31
				s-17.31-45.36-60.28-26.26C964.24,1591.53,934.4,1828.48,935,1870.86z"/>
			<path class="st23" d="M1508.66,1194.51c0.9,19.42-36.5,36.53-61.97,35.73c-25.47-0.8-93.67-10.49-93.67-10.49
				s1.42,6.44,1.36,6.19c-0.05-0.25,39.39-1.42,60.87,6.01c21.49,7.43,36.21,20.56,36.21,20.56s44.96-13.53,62.07-27.06
				C1530.65,1211.94,1508.66,1194.51,1508.66,1194.51z"/>
			<g>
				
					<linearGradient id="SVGID_00000178187723662744717970000003970338458342662316_" gradientUnits="userSpaceOnUse" x1="1215.042" y1="1760.1791" x2="1215.042" y2="1156.0964">
					<stop  offset="0" style="stop-color:#FFB595"/>
					<stop  offset="0.984" style="stop-color:#FFAEA9"/>
				</linearGradient>
				<path style="fill:url(#SVGID_00000178187723662744717970000003970338458342662316_);" d="M1337.13,1315.83
					c-0.19,0.19-0.31,0.38-0.44,0.57l0.19-0.06l0.5-0.13c7.18-1.32,68.54-12.85,78.06-11.78c10.14,1.2,17.33,30.43,17.7,34.02
					c0.44,3.59-6.74,6.36-6.74,6.36s6.74-0.76,12.35,0.44c5.54,1.2,10.33,33.01,9.95,38.56c-0.44,5.61-5.17,7.56-5.17,7.56
					s7.56,17.51,7.56,33.45c0,15.88-36.86,40.19-49.96,68.23c0,0-30.43,6.55-35.22-14.3c0,0-53.74,49.52-73.4,58.46
					c-5.92,2.71-13.99,3.09-22.93,2.52c-20.92-1.39-46.94-8.25-63.63-4.91c-23.88,4.79-186.23,171.24-247.53,225.35
					c0,0-13.1-110.57,57.71-192.72c0,0,68.04-59.47,128.96-109.62c60.86-50.15,118.76-146.22,122.91-151.01
					c4.22-4.79,47.19-23.88,71.63-69.8c0.06,0,0.06,0,0.13-0.06c2.33-1.2,39.88-20.35,59.6-42.34
					c20.29-22.68,30.43-35.78,43.53-38.18c13.17-2.39,25.07,7.75,29.23,26.84c2.08,9.51-2.65,26.4-16.13,43.22
					c-13.36,16.76-35.47,33.45-67.98,42.71C1388.03,1269.21,1355.71,1289.82,1337.13,1315.83z"/>
				
					<linearGradient id="SVGID_00000097493867855963146670000006689318581603226250_" gradientUnits="userSpaceOnUse" x1="1268.0168" y1="1274.9677" x2="1456.0114" y2="1274.9677">
					<stop  offset="0.016" style="stop-color:#FFFFFF"/>
					<stop  offset="0.9916" style="stop-color:#EA9DC8"/>
				</linearGradient>
				<path style="fill:url(#SVGID_00000097493867855963146670000006689318581603226250_);" d="M1456.01,1226.5
					c-13.36,16.76-35.47,33.45-67.98,42.71c0,0-32.32,20.6-50.9,46.62l3.34-0.63l-3.09,1.01l-0.5,0.13l-0.19,0.06
					c0,0-36.04,5.73-39.63,6.93c-0.44,0.13-1.13,0.13-2.02,0.06h-0.13c-6.55-0.88-23.37-8-26.9-16.57
					c4.22-4.79,47.19-23.88,71.63-69.8c0.06,0,0.06,0,0.13-0.06c25.77-7.43,29.11,17.45,36.48,26.33
					C1383.69,1272.17,1456.01,1226.5,1456.01,1226.5z"/>
				
					<linearGradient id="SVGID_00000085931249244382321590000008972236059922001030_" gradientUnits="userSpaceOnUse" x1="1269.5919" y1="1422.1635" x2="1451.0972" y2="1422.1635">
					<stop  offset="8.379890e-03" style="stop-color:#EA9DC8"/>
					<stop  offset="0.984" style="stop-color:#FFDBD6"/>
				</linearGradient>
				<path style="opacity:0.5;fill:url(#SVGID_00000085931249244382321590000008972236059922001030_);" d="M1451.1,1424.83
					c0,15.88-36.86,40.19-49.96,68.23c0,0-30.43,6.55-35.22-14.3c0,0-53.74,49.52-73.4,58.46c-5.92,2.71-13.99,3.09-22.93,2.52
					c28.29,1.26,87.95-72.32,95.51-97.84c7.56-25.45-9.58-35.78-15.5-40.19c-5.98-4.35-11.09-36.98-22.24-41.77
					c-11.15-4.73-14.74-26.27-20.35-29.8c-5.54-3.59-12.29-6.68-12.29-6.68l0.19-0.06h0.13l42.08-7.56l3.34-0.63l-3.09,1.01
					c7.18-1.32,68.54-12.85,78.06-11.78c10.14,1.2,17.33,30.43,17.7,34.02c0.44,3.59-6.74,6.36-6.74,6.36s6.74-0.76,12.35,0.44
					c5.54,1.2,10.33,33.01,9.95,38.56c-0.44,5.61-5.17,7.56-5.17,7.56S1451.1,1408.89,1451.1,1424.83z"/>
				<path class="st18" d="M1405.28,1187.98c0,0-8.52,9.63-6.53,19.38c1.99,9.75,40.67,3.18,57.26-8.36
					c16.59-11.54,13.9-25.85,3.92-31.51C1449.94,1161.84,1405.28,1187.98,1405.28,1187.98z"/>
				<path class="st27" d="M1442.02,1158.22c-9.85-1.49-46.55,32.11-42.08,46.64c4.48,14.54,59.68-3.07,65.65-20.38
					C1471.57,1167.17,1442.02,1158.22,1442.02,1158.22z"/>
				<path class="st28" d="M1432.98,1161.38c0,0,16.3,4.2,24.26,12.16c7.96,7.96,6.17,12.36,7.76,12.34
					c1.59-0.01,6.89-11.85-8.99-21.05C1440.13,1155.63,1432.98,1161.38,1432.98,1161.38z"/>
				<path class="st28" d="M1400.46,1197.32c0,0,6.85-6.52,12.02-2.81c5.17,3.7,3.24,15.57,3.24,15.57
					S1395.17,1212.33,1400.46,1197.32z"/>
				<path class="st13" d="M1367.91,1260.02c5.69,16.13-31.51-20.8-23.51-24.09C1352.4,1232.63,1363.54,1247.61,1367.91,1260.02z"/>
				<path class="st18" d="M1433.14,1338.45c0,0-61.25-2.37-109.4,15.53l102.65-9.17C1426.4,1344.81,1431.52,1341.22,1433.14,1338.45
					z"/>
				<path class="st18" d="M1443.54,1391.37c0,0-33.05-5.55-96.01,7.72L1443.54,1391.37z"/>
				<path class="st18" d="M1365.92,1478.75c0,0,31.04-26.59,39.1-30.76c8.06-4.18,26.86-5.97,26.86-5.97s-24.17,5.67-25.96,7.46
					c-1.79,1.79,22.08,1.79,22.08,1.79s-19.02,3.98-26.82,5.57c-7.8,1.59-14.36,6.37-15.76,9.75c-1.39,3.38,0.08,16.99-6.98,19.3
					C1371.39,1488.2,1365.92,1478.75,1365.92,1478.75z"/>
				<path class="st29" d="M1139.12,1484.15c-5.26,44.58,72.29,38.26,120.9,28.06c48.61-10.2,85.43-75.83,87.51-93.17
					c2.08-17.34-9.85-40.59-23.78-55.51c-13.93-14.92-24.02-26.43-38.99-40.1c-14.97-13.67-41.54,28.41-69.71,66.78
					C1186.87,1428.59,1141.51,1463.9,1139.12,1484.15z"/>
				
					<linearGradient id="SVGID_00000000209163298815843900000012624248190992921494_" gradientUnits="userSpaceOnUse" x1="1271.9001" y1="1343.3198" x2="1288.3787" y2="1343.3198">
					<stop  offset="0.016" style="stop-color:#FFFFFF"/>
					<stop  offset="0.9916" style="stop-color:#EA9DC8"/>
				</linearGradient>
				<path style="opacity:0.5;fill:url(#SVGID_00000000209163298815843900000012624248190992921494_);" d="M1288.31,1330.27
					c-11.64,2.03-16.41,26.11-16.41,26.11S1289.58,1344.64,1288.31,1330.27z"/>
				
					<linearGradient id="SVGID_00000135669185568500380520000009527666525867424903_" gradientUnits="userSpaceOnUse" x1="1294.8751" y1="1370.976" x2="1319.6674" y2="1370.976">
					<stop  offset="0.016" style="stop-color:#FFFFFF"/>
					<stop  offset="0.9916" style="stop-color:#EA9DC8"/>
				</linearGradient>
				<path style="opacity:0.5;fill:url(#SVGID_00000135669185568500380520000009527666525867424903_);" d="M1319.67,1356.37
					c0,0-23.87,5.67-24.77,24.47C1294,1399.65,1319.67,1356.37,1319.67,1356.37z"/>
				
					<linearGradient id="SVGID_00000131328409823588848700000015037216643496326784_" gradientUnits="userSpaceOnUse" x1="1314.0522" y1="1408.8744" x2="1337.2749" y2="1408.8744">
					<stop  offset="0.016" style="stop-color:#FFFFFF"/>
					<stop  offset="0.9916" style="stop-color:#EA9DC8"/>
				</linearGradient>
				<path style="opacity:0.5;fill:url(#SVGID_00000131328409823588848700000015037216643496326784_);" d="M1337.27,1397.56
					c0,0-16.87,10.23-23.22,22.64C1329.12,1418.84,1337.27,1397.56,1337.27,1397.56z"/>
			</g>
			<g>
				
					<linearGradient id="SVGID_00000164504779560020951230000004456682757351663232_" gradientUnits="userSpaceOnUse" x1="1161.4031" y1="1209.0887" x2="1161.4031" y2="931.0187">
					<stop  offset="0.016" style="stop-color:#FFA67F"/>
					<stop  offset="1" style="stop-color:#FF8B7C"/>
				</linearGradient>
				<path style="fill:url(#SVGID_00000164504779560020951230000004456682757351663232_);" d="M1046.41,931.02
					c0,0,34.11,91.12,46.7,217.65c0,0,50.39,65.65,117.24,60.08c66.85-5.57,66.05-103.45,66.05-103.45s-27.57-107.81-45.22-157.36
					L1046.41,931.02z"/>
				<path class="st18" d="M1067.05,1000.21c0,0,60.46,43.35,123.77,69.84c63.3,26.49,56.44-71.32,56.44-71.32l-16.08-50.8
					c0,0-92.51,9.35-184.8-16.91L1067.05,1000.21z"/>
				
					<linearGradient id="SVGID_00000105399562932396467990000005702180432617130885_" gradientUnits="userSpaceOnUse" x1="1123.8228" y1="1144.1704" x2="1123.8228" y2="935.4023">
					<stop  offset="0.016" style="stop-color:#FFFFFF"/>
					<stop  offset="0.9916" style="stop-color:#F29DC8"/>
				</linearGradient>
				<path style="fill:url(#SVGID_00000105399562932396467990000005702180432617130885_);" d="M1059.23,935.69
					c-30.8-7.52,56.21,135.72,106.66,186.65s24.71,4.54,0-55.14s-52.04-121.6-64.17-123.91
					C1089.58,940.98,1059.23,935.69,1059.23,935.69z"/>
			</g>
			
				<linearGradient id="SVGID_00000036964780831886994310000013475555752742237603_" gradientUnits="userSpaceOnUse" x1="894.3682" y1="1938.983" x2="894.3682" y2="1557.4038">
				<stop  offset="0" style="stop-color:#38328A"/>
				<stop  offset="1" style="stop-color:#4F349B"/>
			</linearGradient>
			<path style="fill:url(#SVGID_00000036964780831886994310000013475555752742237603_);" d="M1075.99,1648.98
				c-4.1,165-72.58,246.52-72.58,246.52c-15.12,6.99-32.82,13.1-51.79,18.27c-86.56,23.81-199.08,29.55-210.8,22.24
				c-14.3-8.88-34.21-70.75-26.27-165.44s64.89-202.93,101.49-207.27c36.6-4.41,69.24,40.95,90.72,39
				c21.48-2.02,87.51-42.59,91.92-44.16c0.19-0.06,0.38-0.13,0.63-0.19c4.66-1.32,14.49,0.19,14.49,0.19l2.33,9.32
				c-44.54,59.47-90.72,312.17-39.75,311.35c50.9-0.82,84.55-215.08,84.55-215.08L1075.99,1648.98z"/>
			<g>
				
					<linearGradient id="SVGID_00000064338947404376747250000001171051451686689700_" gradientUnits="userSpaceOnUse" x1="1797.7905" y1="1550.1312" x2="1797.7905" y2="893.0294">
					<stop  offset="0" style="stop-color:#FFB595"/>
					<stop  offset="0.984" style="stop-color:#FFAEA9"/>
				</linearGradient>
				<path style="fill:url(#SVGID_00000064338947404376747250000001171051451686689700_);" d="M1942,982.5
					c0,0-25.01,106.91-35.34,124.36c-10.33,17.51-21.25,23.66-32.4,49.24c-11.15,25.64-10.56,247.62-45.59,355.86
					c-34.97,108.24-154.16-48.07-154.16-48.07s104.77-165.06,121.84-311.92c0.76-6.3,1.32-12.6,1.7-18.84
					c0,0-74.84-22.74-82.15-47.94c-0.06-0.19-0.13-0.32-0.13-0.44c0-0.06,0-0.06-0.06-0.13c-2.46-9.7-4.54-21.61-6.87-34.52
					c0,0,0-0.06-0.06-0.13c-3.78-20.98-8.32-44.35-16.19-64.07c-0.76-1.89-1.58-3.78-2.39-5.67c-13.36-29.99-36.6-60.17-36.6-69.93
					c0-10.33,27.85-29.42,59.72-6.36c21.67,15.75,24.13,33.71,24.82,48.07c0.25,6.68,0.19,12.6,1.45,17.2
					c1.83,6.49,5.86,10.08,9.77,12.03c4.79,2.33,9.32,2.33,9.32,2.33l-0.82-13.55L1942,982.5z"/>
				
					<linearGradient id="SVGID_00000113344768322492705730000000216537480176216475_" gradientUnits="userSpaceOnUse" x1="1849.9167" y1="1055.9867" x2="1849.9167" y2="970.0131">
					<stop  offset="0.016" style="stop-color:#FFDBD6"/>
					<stop  offset="0.9916" style="stop-color:#EA9DC8"/>
				</linearGradient>
				<path style="fill:url(#SVGID_00000113344768322492705730000000216537480176216475_);" d="M1758.65,983.54
					c0,0,36.54,9.35,60.05,57.7c23.51,48.34,2.62-36.51-37.67-49.74c0,0,29.25,5.57,70.73,38.4c41.48,32.83,68.94-28.95,73.71-35.21
					c4.77-6.27,12.71,3.63,12.71,3.63l3.8-15.82l-184.12-12.48L1758.65,983.54z"/>
				
					<linearGradient id="SVGID_00000029012513498498371910000005198989278290103998_" gradientUnits="userSpaceOnUse" x1="1715.7635" y1="1118.4877" x2="1843.5343" y2="1118.4877">
					<stop  offset="8.379890e-03" style="stop-color:#EA9DC8"/>
					<stop  offset="0.984" style="stop-color:#FFFFFF"/>
				</linearGradient>
				<path style="fill:url(#SVGID_00000029012513498498371910000005198989278290103998_);" d="M1796.34,1151.97
					c0.76-6.3,1.32-12.6,1.7-18.84c0,0-74.84-22.74-82.15-47.94c-0.06-0.19-0.13-0.32-0.13-0.44c13.8,16.7,121.53,46.81,127.2,53.99
					C1847.37,1144.35,1825.76,1153.92,1796.34,1151.97z"/>
				<path class="st18" d="M1664.02,933.49c0,0,13.54,28.83,32.95,26.97c16.61-1.59,13.73-43.29,2.64-51.69
					C1688.52,900.38,1664.02,933.49,1664.02,933.49z"/>
				<path class="st39" d="M1708.83,1050.1c0,0,0-0.06-0.06-0.13c-3.78-20.98-8.32-44.35-16.19-64.07c-0.76-1.89-1.58-3.78-2.39-5.67
					c26.4,11.78,43.03-33.89,43.03-33.89s1.45-0.76,4.91,5.67c0.25,6.68,0.19,12.6,1.45,17.2c1.83,6.49,5.86,10.08,9.77,12.03
					C1761.12,1018.41,1715.89,1085.19,1708.83,1050.1z"/>
				<path class="st27" d="M1654.58,914.79c-3.31-9.48,31.66-12.82,42-8.44c10.35,4.38,15.94,44.55,0,49.74
					C1680.64,961.27,1660.72,932.38,1654.58,914.79z"/>
				<path class="st28" d="M1656.06,918.59c0,0,2.32-7.47,21.42-9.86c19.1-2.39,26.06,7.52,26.06,7.52s0.5-16.09-30.24-11.8
					C1642.56,908.74,1656.06,918.59,1656.06,918.59z"/>
				<path class="st28" d="M1680.45,951.94c0,0,11.35-7.99,23.09-0.83C1703.54,951.11,1697.75,968.09,1680.45,951.94z"/>
				<path class="st29" d="M1729.21,1090.18c-15.26-12.55,18.04-64.06,26.13-89.13c8.09-25.07,67.38,19.1,82.9,80.77
					C1853.75,1143.5,1760.64,1116.04,1729.21,1090.18z"/>
			</g>
			<path class="st40" d="M1116.26,1609.96l23.08-21.58c0,0-7.97,33.19-12.75,34.39C1121.81,1623.96,1116.26,1609.96,1116.26,1609.96
				z"/>
			
				<linearGradient id="SVGID_00000149377188674006148950000009273975248575289785_" gradientUnits="userSpaceOnUse" x1="1771.0057" y1="1721.8782" x2="1771.0057" y2="1231.9614">
				<stop  offset="0" style="stop-color:#38328A"/>
				<stop  offset="1" style="stop-color:#4F349B"/>
			</linearGradient>
			<path style="fill:url(#SVGID_00000149377188674006148950000009273975248575289785_);" d="M1930.53,1504.46
				c-1.13,2.52-2.39,5.1-3.78,7.75c-40.38,76.8-182.45,204.82-201.54,208.85c-19.66,4.16-57.27-5.36-93.68-77.62
				c-36.41-72.2-18.52-262.59,16.13-293.02c34.59-30.43,57.27,15.5,79.95-23.31c13.29-22.74,24.89-54.56,34.52-75.03
				c6.8-14.55,12.6-23.31,17.26-19.03c0,0-15.18,42.53-7.25,95.07c8,52.54,101.12,177.47,117.81,155.99
				c16.7-21.42-33.45-177.85-33.45-177.85l0.76-22.62C1911.63,1407.88,1930.53,1504.46,1930.53,1504.46z"/>
			<path class="st42" d="M1930.53,1504.46c-1.13,2.52-2.39,5.1-3.78,7.75c-19.66-5.17-44.23-15.88-74.84-35.28
				c-104.08-65.9-104.33-175.9-89.78-224.85c6.8-14.55,12.6-23.31,17.26-19.03c0,0-15.18,42.53-7.25,95.07
				c8,52.54,101.12,177.47,117.81,155.99c16.7-21.42-33.45-177.85-33.45-177.85l0.76-22.62
				C1911.63,1407.88,1930.53,1504.46,1930.53,1504.46z"/>
			
				<linearGradient id="SVGID_00000144309741434976685940000016290631702300317367_" gradientUnits="userSpaceOnUse" x1="1823.6749" y1="1452.2942" x2="1823.6749" y2="1173.2632">
				<stop  offset="0" style="stop-color:#FF6686"/>
				<stop  offset="1" style="stop-color:#FF7C89"/>
			</linearGradient>
			<path style="fill:url(#SVGID_00000144309741434976685940000016290631702300317367_);" d="M1878.37,1222.47
				c-0.13,0.44-0.25,0.95-0.38,1.39c-9.51,32.26-35.53,228.44-35.53,228.44c-113.21-101.12-66.21-208.22-66.21-208.22
				c5.67-35.34,6.87-63.76,7.5-67.35c0.57-3.59,9.58-3.47,9.58-3.47s-2.33,17.33,1.95,24.32c22.49,37.04,76.8,22.68,75.98,9.95
				c-0.82-12.73-2.84-13.04-2.84-13.04l1.01-10.27C1869.42,1184.23,1887.06,1191.47,1878.37,1222.47z"/>
			<path class="st44" d="M1868.42,1194.51l-2.93,19.82c0,0,6.4,1.88,8.55-8.8C1876.2,1194.84,1868.42,1194.51,1868.42,1194.51z"/>
			<path class="st18" d="M1090.74,1127.32c0,0,39.23,81.83,104.88,78.25c65.65-3.58,78.66-91.51,75.54-120.36l5.23,22.87
				c0,0,11.54,97.49-67.25,107.83c-78.78,10.35-115.11-58.24-116.04-67.25C1092.17,1139.67,1090.74,1127.32,1090.74,1127.32z"/>
			<path class="st23" d="M1051.62,1264.6c0,0-65.89,50.89-69.17,52.98c-3.28,2.09-49.24-13.43-55.81-21.79
				c-6.57-8.36,0,14.03,11.94,26.26c11.94,12.24,40.4,3.93,40.36,4.76c-0.04,0.83-2.23,10.94-2.23,10.94s9.32-24.47,45.12-47.94
				c22.37-14.67,29.78-14.92,29.78-14.92V1264.6z"/>
			<path class="st18" d="M1075.99,1648.98c-4.1,165-72.58,246.52-72.58,246.52c-15.12,6.99-32.82,13.1-51.79,18.27
				c-4.79-5.54-9.14-13.48-13.04-24.26c-24.63-68.17,45.99-287.35,60.73-331.57c4.66-1.32,14.49,0.19,14.49,0.19l2.33,9.32
				c-44.54,59.47-90.72,312.17-39.75,311.35c50.9-0.82,84.55-215.08,84.55-215.08L1075.99,1648.98z"/>
			
				<linearGradient id="SVGID_00000011719858817910817400000004436602756588064934_" gradientUnits="userSpaceOnUse" x1="1053.6252" y1="1789.6633" x2="1053.6252" y2="1484.1487">
				<stop  offset="0" style="stop-color:#FF6686"/>
				<stop  offset="1" style="stop-color:#FF7C89"/>
			</linearGradient>
			<path style="fill:url(#SVGID_00000011719858817910817400000004436602756588064934_);" d="M1151.91,1576.85
				c0,0-16.44,44.48-29.11,61.11c-3.02,3.97-5.8,6.36-8.13,6.11c-11.97-1.2-159.33,145.59-159.33,145.59s13.1-158.57,60.8-222.2
				c0,0,55.19-48.45,68.86-67.47c16.07-22.24,26.96-14.55,26.96-14.55s-31.31,65.52,9.26,133.56l18.08-30.62L1151.91,1576.85z"/>
			
				<linearGradient id="SVGID_00000150078132837375060880000006340068716943175353_" gradientUnits="userSpaceOnUse" x1="1592.5449" y1="1535.4288" x2="1592.5449" y2="1204.8608">
				<stop  offset="8.379890e-03" style="stop-color:#C2798B"/>
				<stop  offset="0.984" style="stop-color:#FFFFFF"/>
			</linearGradient>
			<path style="opacity:0.8;fill:url(#SVGID_00000150078132837375060880000006340068716943175353_);" d="M1561.69,1535.43
				c0,0-17.91-165.13,0-246.3c17.91-81.17,76.79-63.93,80.77-72.15c3.98-8.22-42.18-24.74-74.81,4.61
				C1535.03,1250.93,1535.03,1428.39,1561.69,1535.43z"/>
			<path class="st18" d="M1653.6,1195.22c-34.62-7.16-54.91,52.52-87.14,48.94c-32.23-3.58,28.88-204.69,49.74-224.21
				c31.04,33.11,35.88,131.69,36.39,143.6C1653.1,1175.46,1653.6,1195.22,1653.6,1195.22z"/>
			<path class="st18" d="M816.44,1209.09c12.32-19.83,105.79,120.04,119.75,181.9c13.96,61.87,14.32,102.06,5.97,103.85
				c-8.36,1.79-59.09-124.74-73.41-146.23c-14.32-21.49-32.83,4.18-32.83,4.18S810.09,1255.18,816.44,1209.09z"/>
			
				<linearGradient id="SVGID_00000060009247146320634420000001848569018284732607_" gradientUnits="userSpaceOnUse" x1="898.2929" y1="1597.1198" x2="898.2929" y2="1512.208">
				<stop  offset="8.379890e-03" style="stop-color:#C2798B"/>
				<stop  offset="0.984" style="stop-color:#FFFFFF"/>
			</linearGradient>
			<path style="opacity:0.8;fill:url(#SVGID_00000060009247146320634420000001848569018284732607_);" d="M959.47,1579.87
				c0,0-31.64-64.62-122.36-67.66c0,0,71.99,37.98,86.93,84.91L959.47,1579.87z"/>
			
				<linearGradient id="SVGID_00000097468910659310862170000003645999562815083910_" gradientUnits="userSpaceOnUse" x1="752.6691" y1="1591.1193" x2="927.8359" y2="1591.1193">
				<stop  offset="0.016" style="stop-color:#FFFFFF"/>
				<stop  offset="0.9916" style="stop-color:#C2798B"/>
			</linearGradient>
			<path style="opacity:0.8;fill:url(#SVGID_00000097468910659310862170000003645999562815083910_);" d="M927.84,1595.51
				c0,0-9.63,9.23-21.07,6.79c-11.44-2.44-56.88-41.76-90.72-39c-33.84,2.77-63.38,73.59-63.38,73.59s17.11-63.63,62.77-86.76
				C861.1,1526.98,927.84,1595.51,927.84,1595.51z"/>
			
				<linearGradient id="SVGID_00000104691305906869009540000010120823515912962997_" gradientUnits="userSpaceOnUse" x1="760.7181" y1="1639.609" x2="899.6122" y2="1639.609">
				<stop  offset="0.016" style="stop-color:#FFFFFF"/>
				<stop  offset="0.9916" style="stop-color:#C2798B"/>
			</linearGradient>
			<path style="opacity:0.8;fill:url(#SVGID_00000104691305906869009540000010120823515912962997_);" d="M760.72,1689.42
				c0,0,34.27-87.64,138.89-87.99l-12.92-10.31C886.69,1591.12,785.39,1570.84,760.72,1689.42z"/>
			
				<linearGradient id="SVGID_00000109713938848138687210000007617173735431221653_" gradientUnits="userSpaceOnUse" x1="1610.5663" y1="1399.0875" x2="1720.452" y2="1399.0875">
				<stop  offset="0.016" style="stop-color:#FFFFFF"/>
				<stop  offset="0.9916" style="stop-color:#C2798B"/>
			</linearGradient>
			<path style="opacity:0.8;fill:url(#SVGID_00000109713938848138687210000007617173735431221653_);" d="M1720.45,1337.27
				c-11.74,5.97-84.75,48.94-89.53,152.79c0,0-0.44-79.54,26.86-114.6c27.3-35.06,42.88-32.05,42.88-32.05s-38.71-7.53-61.39,17.93
				c-22.68,25.46-25.4,108.28-25.4,108.28s-15.19-71.7,19.43-131.88c34.62-60.17,82.61-10.15,82.61-10.15L1720.45,1337.27z"/>
			<path class="st18" d="M1561.69,1535.43c0,0-36.21-44.17-38.6-103.06c-2.39-58.89,34.16-124.27,34.16-124.27
				S1537.42,1415.66,1561.69,1535.43z"/>
			
				<linearGradient id="SVGID_00000023994568124974804110000010982212865463818882_" gradientUnits="userSpaceOnUse" x1="1678.4238" y1="1629.7583" x2="1888.7864" y2="1629.7583">
				<stop  offset="8.379890e-03" style="stop-color:#C2798B"/>
				<stop  offset="0.984" style="stop-color:#FFFFFF"/>
			</linearGradient>
			<path style="opacity:0.8;fill:url(#SVGID_00000023994568124974804110000010982212865463818882_);" d="M1687.84,1712.91
				c-56.31-69.47,156.75-166.87,192.31-174.53c35.56-7.66-46.79,100.83-100.87,141.75
				C1725.21,1721.06,1709.64,1730.89,1687.84,1712.91z"/>
			
				<linearGradient id="SVGID_00000088846841063162018080000009057268976430190754_" gradientUnits="userSpaceOnUse" x1="1479.6321" y1="2399.5906" x2="1479.6321" y2="1411.0112">
				<stop  offset="8.379890e-03" style="stop-color:#C2798B"/>
				<stop  offset="0.984" style="stop-color:#FFFFFF"/>
			</linearGradient>
			<path style="opacity:0.5;fill:url(#SVGID_00000088846841063162018080000009057268976430190754_);" d="M1604.69,2277.92
				c-17.96,14.3-99.1,27.47-201.79,95.51c-38.56,25.58-61.93,30.74-75.29,22.62c-0.95-0.57-1.83-1.2-2.71-1.95
				c-4.6-3.59-7.75-8.51-9.2-14.74c-0.06-0.25-0.13-0.5-0.19-0.76c-17.01-80.77,118.69-540.48,157.12-704.73
				c38.37-164.24,53.24-261.39,64.01-262.84c10.71-1.45,18.84,87.57,25.01,124.43c6.05,35.66,23.63,177.16,24.7,185.98
				c0,0.13,0.06,0.19,0,0.25c-2.02-6.05-52.92-156.68-92.99,26.52c-40.89,186.86-175.9,548.11-129.47,586.6
				c46.49,38.49,157.63-35.03,210.11-146.41c51.72-109.68,26.15-373.47,25.33-381.78c8.51,53.24,18.27,110.19,29.17,166.89
				C1670.34,2190.79,1622.59,2263.56,1604.69,2277.92z"/>
			
				<linearGradient id="SVGID_00000091732195391429587970000016505023956137367459_" gradientUnits="userSpaceOnUse" x1="820.6797" y1="2448.8406" x2="820.6797" y2="2403.6692">
				<stop  offset="0.016" style="stop-color:#FFFFFF"/>
				<stop  offset="0.9916" style="stop-color:#C2798B"/>
			</linearGradient>
			<path style="opacity:0.8;fill:url(#SVGID_00000091732195391429587970000016505023956137367459_);" d="M830.1,2448.84
				c-13.48-1.13-21.61-2.65-21.61-2.65c8.57-12.73,16.63-26.96,24.38-42.53C824.68,2424.77,818.76,2447.33,830.1,2448.84z"/>
			
				<linearGradient id="SVGID_00000100364977861145862790000000966609234497620104_" gradientUnits="userSpaceOnUse" x1="953.2105" y1="2450.1504" x2="953.2105" y2="1708.7704">
				<stop  offset="0.016" style="stop-color:#FFFFFF"/>
				<stop  offset="0.9916" style="stop-color:#C2798B"/>
			</linearGradient>
			<path style="opacity:0.8;fill:url(#SVGID_00000100364977861145862790000000966609234497620104_);" d="M1071.45,2178.82
				c6.99,51.79,0.88,106.72-10.46,157.12c-5.86,17.77-12.54,31.94-20.16,41.83c-57.33,74.47-163.42,74.97-209.73,71.13
				c25.64,1.32,211.3-46.75,209.73-125.43c-1.58-79.82-4.16-442.27-113.02-252.89c5.1-19.59,10.33-61.49,14.05-96.9
				c0.06-0.44,0.13-0.88,0.19-1.32c3.34-31.5,5.54-57.52,5.54-57.52l2.14-0.76l53.68-18.59c61.93-81.02,68.04-186.73,68.04-186.73
				s13.17,96.01-9.14,135.01c-22.3,39-46.94,34.52-41.83,69.99C1025.59,1949.24,1050.41,2022.83,1071.45,2178.82z"/>
			
				<linearGradient id="SVGID_00000004533376818304495300000012975027182618682762_" gradientUnits="userSpaceOnUse" x1="739.4839" y1="1887.3744" x2="947.5949" y2="1887.3744">
				<stop  offset="8.379890e-03" style="stop-color:#C2798B"/>
				<stop  offset="0.984" style="stop-color:#FFFFFF"/>
			</linearGradient>
			<path style="opacity:0.8;fill:url(#SVGID_00000004533376818304495300000012975027182618682762_);" d="M740.83,1936.01
				c-18.31-19.8,156.36-86.54,175.07-98.58c18.71-12.04,16.44,65.69,31.7,77.41C947.59,1914.85,806.88,1947.85,740.83,1936.01z"/>
			<path class="st56" d="M1151.91,1576.85c0,0-16.44,44.48-29.11,61.11c-15.56-9.2-31.37-28.85-35.91-70.25
				c-9.7-88.39,25.07-82.28,25.07-82.28s-31.31,65.52,9.26,133.56l18.08-30.62L1151.91,1576.85z"/>
			<path class="st18" d="M1016.14,1567.46c0,0-54.72,128.74-22.09,184.13l61.72-58.99c0,0-45.35,136.08-67.95,148.01
				c-22.59,11.94-32.49-50.95-32.49-50.95S961.2,1648.43,1016.14,1567.46z"/>
			<path class="st18" d="M1777.69,1238.64c0,0-15.71,68.73,11.6,128.08c27.32,59.35,56.02,64.16,56.02,64.16l15.68-110.17
				c0,0,14.25,45.89,10.67,90.31c-3.58,44.43-21.87,49.59-21.87,49.59S1726.29,1387.69,1777.69,1238.64z"/>
			<path class="st57" d="M1349.64,2154.78c-2.81-12.95,144.66-604.66,144.66-604.66s-31.85,233.6-72.35,405.49
				C1381.44,2127.5,1349.64,2154.78,1349.64,2154.78z"/>
			<path class="st18" d="M1040.26,2002.29c-16.2-69.76,10.86,291.38,13.37,319.23c2.5,27.85,26.67-30.54,15.3-131.55
				C1057.55,2088.96,1040.26,2002.29,1040.26,2002.29z"/>
			<path class="st58" d="M1139.31,1588.38c0,0-39.58,3.43-27.34-102.94c0,0-29.32,50.45,4.29,124.53L1139.31,1588.38z"/>
			<path class="st18" d="M1069.27,1166.69c0,0,74.62,121.13,159.97,97.91c85.35-23.22,82.12-146.11,82.12-146.11
				s4.76,131.01-84.5,156.48c-89.26,25.47-157.32-102.22-157.32-102.22L1069.27,1166.69z"/>
			<path class="st22" d="M1561.69,2426.25c-60.88-51.66-229.85,80.45-341.13,93.78c-111.28,13.33-206.78-45.16-250.35-58.29
				c-43.57-13.13-70.6,9.57-70.6,9.57l-0.01-21.16c0,0,33.07-2.21,91.1,3.28c60.36,5.71,147.45,18.96,238.74,9.5
				c179.05-18.55,362.09-112.21,362.09-112.21l-28.05,14.92L1561.69,2426.25z"/>
			<path class="st22" d="M1388.28,2382.58c0,0,47.28-0.82,99.8-13.55c52.52-12.73,103.45-45.59,103.45-45.59l-1.78-37.86
				c0,0-55.85,13.41-99.85,33.31S1388.28,2382.58,1388.28,2382.58z"/>
			<path class="st22" d="M899.6,2450.15c0,0,92.69,1.5,140.44-23.9c47.75-25.39,51.73-247.42,51.73-247.42
				s-19.11,154.37-50.93,198.94C1009.01,2422.35,899.6,2450.15,899.6,2450.15z"/>
			
				<linearGradient id="SVGID_00000056407553110756825230000003537696864351737507_" gradientUnits="userSpaceOnUse" x1="1604.5171" y1="1576.4595" x2="1737.0708" y2="1346.8698">
				<stop  offset="0.016" style="stop-color:#FFFFFF"/>
				<stop  offset="0.9916" style="stop-color:#C2798B"/>
			</linearGradient>
			<path style="opacity:0.8;fill:url(#SVGID_00000056407553110756825230000003537696864351737507_);" d="M1720.45,1337.27
				c0,0-63.48,107.18-70.03,220.13c-6.55,112.95-28.02-34.96-17.09-105.14C1644.26,1382.09,1720.45,1337.27,1720.45,1337.27z"/>
			<path class="st60" d="M1390.99,1053.06c-12.58,18.76,101.96,75.68,135.13,79.08c33.18,3.4,84.44-104.33,84.44-104.33
				S1573.63,1002.81,1390.99,1053.06z"/>
			<path class="st60" d="M830.35,1204.38c-4.77,7.56,60.08,69.63,72.82,79.58c12.73,9.95,90.32-108.39,95.1-117.26
				C1003.04,1157.82,898.79,1157.82,830.35,1204.38z"/>
			<path class="st60" d="M804.98,1632.98c-39.12,27.43-90.42,194.11-70.53,233.9c19.9,39.79,150.81-56.63,189.6-121.03
				c38.79-64.4-9.75-144.77-9.75-144.77S862.77,1592.47,804.98,1632.98z"/>
			<path class="st13" d="M1737.52,1308.11c0,0-55.33,107.92-72.01,168.81c-16.68,60.9-19.71,161.76-11.93,177.28
				c7.78,15.52,110.44-93.11,122.97-125.94c12.53-32.83-48.94-140.26-45.36-168.31C1734.78,1331.9,1737.52,1308.11,1737.52,1308.11z
				"/>
			<path class="st60" d="M1561.69,1611.35c-54.51-56.42-77.45,296.96-68.37,364.58c9.08,67.62,84.32,132.87,99.22,128.1
				c14.9-4.77,14.9-155.98-1.01-302.4C1575.62,1655.2,1561.69,1611.35,1561.69,1611.35z"/>
			<path class="st60" d="M1585.96,2257.62c-23.08-21.49,20.69-127.12,34.22-178.16c13.53-51.03,30.44,65.88,13.53,125.01
				S1585.96,2257.62,1585.96,2257.62z"/>
			<g>
				
					<linearGradient id="SVGID_00000089561745833337703790000004472483320460124840_" gradientUnits="userSpaceOnUse" x1="1241.7731" y1="586.1437" x2="1209.6995" y2="383.6388">
					<stop  offset="0" style="stop-color:#3E2987"/>
					<stop  offset="0.1442" style="stop-color:#372987"/>
					<stop  offset="0.6639" style="stop-color:#212885"/>
					<stop  offset="1" style="stop-color:#192885"/>
				</linearGradient>
				<path style="fill:url(#SVGID_00000089561745833337703790000004472483320460124840_);" d="M1180.77,388.22
					c0,0,38.74,9.83,60.02,42.75c21.28,32.92,19.23,152.28,19.23,152.28L1180.77,388.22z"/>
				
					<linearGradient id="SVGID_00000098908323737119495470000004291847320254116997_" gradientUnits="userSpaceOnUse" x1="1093.0962" y1="950.6655" x2="1093.0962" y2="372.4907">
					<stop  offset="0" style="stop-color:#FFB595"/>
					<stop  offset="0.984" style="stop-color:#FFC2A9"/>
				</linearGradient>
				<path style="fill:url(#SVGID_00000098908323737119495470000004291847320254116997_);" d="M1340.59,833.56
					c0,0.06-0.06,0.19-0.13,0.38c-10.08,44.79-42.71,90.66-80.45,106.6c-48.89,20.73-171.43,5.61-213.64-9.51
					c-14.99-5.36-29.04-20.16-42.9-39.69c-0.06-0.06-0.13-0.13-0.13-0.13c-25.14-35.34-49.9-86.12-79.07-124.55
					c-5.54-7.25-10.77-14.24-15.75-21.11c-35.78-49.27-57.02-88.96-65.46-142.38c-9.51-60.92,81.4-139.42,93.12-152.84
					c98.91-112.83,204.12-82.34,254.27-36.98c16.76,15.18,29.36,32.07,38.68,47.82l0.13,0.19c18.52,31.37,24.19,58.21,24.19,58.21
					s1.39,14.74,4.6,33.77c0.44,2.9,1.01,5.92,1.58,9.01c1.89,10.21,6.49,25.64,9.39,35.85c4.85,17.07,20.85,50.59,38.3,90.97
					c1.89,4.35,3.78,8.76,5.67,13.1c14.62,34.78,27.66,69.68,30.24,93.05C1344.56,807.48,1343.55,820.46,1340.59,833.56z"/>
				
					<linearGradient id="SVGID_00000005268584046460643060000003945487009829288087_" gradientUnits="userSpaceOnUse" x1="1068.6976" y1="737.6083" x2="1012.3701" y2="381.9704">
					<stop  offset="0.016" style="stop-color:#FFFFFF"/>
					<stop  offset="0.9916" style="stop-color:#F29DC8"/>
				</linearGradient>
				<path style="fill:url(#SVGID_00000005268584046460643060000003945487009829288087_);" d="M1229.27,461.35
					c0,0-13.73,33.52-112.83,41.52c-99.1,8.06-155.17-34.59-177.85-8.39c-22.68,26.27,16.7,161.16,45.42,136.08
					c0,0-10.21,22.68-4.09,75.47c6.05,52.79-1.95,46.31-16.25,46.75c-5.36,0.19-28.04-2.46-55.13-7.25
					c-35.78-49.27-57.02-88.96-65.46-142.38c-9.51-60.92,81.4-139.42,93.12-152.84c98.91-112.83,204.12-82.34,254.27-36.98
					c16.76,15.18,29.36,32.07,38.68,47.82L1229.27,461.35z"/>
				
					<linearGradient id="SVGID_00000075129671232590127790000012568781392535191173_" gradientUnits="userSpaceOnUse" x1="978.3357" y1="893.9042" x2="874.6901" y2="751.2482">
					<stop  offset="0" style="stop-color:#FFB595"/>
					<stop  offset="0.984" style="stop-color:#FF958D"/>
				</linearGradient>
				<path style="fill:url(#SVGID_00000075129671232590127790000012568781392535191173_);" d="M939.77,765.49
					c0,0-39.99-20.31-69.83-9.57c-29.84,10.74-19.7,68.06,10.15,94.32c29.84,26.26,54.91,28.65,87.74,39.39
					c32.83,10.74,28.05-37.6,28.05-37.6S988.12,784,939.77,765.49z"/>
				
					<linearGradient id="SVGID_00000144314574214860253260000011315475971653399443_" gradientUnits="userSpaceOnUse" x1="861.5445" y1="597.1654" x2="843.7632" y2="484.8992">
					<stop  offset="0" style="stop-color:#3E2987"/>
					<stop  offset="0.5684" style="stop-color:#2C2F90"/>
					<stop  offset="1" style="stop-color:#243294"/>
				</linearGradient>
				<path style="fill:url(#SVGID_00000144314574214860253260000011315475971653399443_);" d="M911.12,474.23
					c-7.03,20.29-87.02,31.44-105.48,65.85c-18.46,34.42-14.94,59.31-9.67,66.56c5.27,7.25,16.25-42.49,64.53-74.32
					C908.78,500.49,911.12,474.23,911.12,474.23z"/>
				
					<linearGradient id="SVGID_00000034071404371368001000000000173511762641597857_" gradientUnits="userSpaceOnUse" x1="918.681" y1="869.9741" x2="918.681" y2="785.4996">
					<stop  offset="0.016" style="stop-color:#FFFFFF"/>
					<stop  offset="0.9916" style="stop-color:#F29DC8"/>
				</linearGradient>
				<path style="fill:url(#SVGID_00000034071404371368001000000000173511762641597857_);" d="M957.47,806.87
					c0,0-46.35-25.86-73.4-20.69c-27.06,5.17-11.28,46.76,0,61.28c11.28,14.51,31.04,17.91,31.04,17.91s-27.26-5.27-34.42-34.22
					c-7.16-28.95,7.76-34.32,19.1-37c11.34-2.69,1.08,17.23,5.97,43.57c4.89,26.34,23.28,31.33,33.72,32.23
					c10.44,0.9-10.74-16.71-10.74-37.9c0-21.19,14.03,16.71,32.23,10.74C979.17,836.82,957.47,806.87,957.47,806.87z"/>
				
					<linearGradient id="SVGID_00000057846142012752081340000010474543148385184385_" gradientUnits="userSpaceOnUse" x1="1131.8979" y1="760.6479" x2="1131.8979" y2="533.5178">
					<stop  offset="0.016" style="stop-color:#FFFFFF"/>
					<stop  offset="0.9916" style="stop-color:#F29DC8"/>
				</linearGradient>
				<path style="fill:url(#SVGID_00000057846142012752081340000010474543148385184385_);" d="M1093.11,590.99
					c59.14,2.61,87.66-16.49,87.66-16.49s42.16-30.24,56.56-38.99c14.4-8.75,19.37,14.23,19.37,14.23s9.2,54.54,34.74,103.32
					c0,0-39.45,26.32-67.17,20.13c-27.71-6.19-23.48-26.1-41.38-50.3c-32.63-16.95-37.4,14.48-37.4,14.48s11.14,53.77-6.76,83.78
					c-17.91,30.02-96.21,54.39-135.25,28.67c-39.03-25.71-30.28-92.36-30.28-92.36S1022.02,593.96,1093.11,590.99z"/>
				<path class="st68" d="M929.73,794.14c-24.88-7.3-2.19,43.27,18.7,44.47c20.89,1.19,2.39-20.29,0.9-26.56
					c-1.49-6.27,8.15-5.17,8.15-5.17S941.69,798.26,929.73,794.14z"/>
				<g>
					
						<linearGradient id="SVGID_00000122703709848523496050000007296368802535268287_" gradientUnits="userSpaceOnUse" x1="1027.4296" y1="676.8356" x2="1129.0648" y2="676.8356">
						<stop  offset="8.379890e-03" style="stop-color:#EA9DC8"/>
						<stop  offset="0.984" style="stop-color:#FFFFFF"/>
					</linearGradient>
					<path style="fill:url(#SVGID_00000122703709848523496050000007296368802535268287_);" d="M1031.16,714.17
						c0,0-15.98-33.99,18.2-65.95c34.18-31.97,79.71,34.32,79.71,34.32L1031.16,714.17z"/>
					<path class="st18" d="M1032.21,719.69c4.72,17.65,79.69-18.26,95.77-25.41c16.08-7.15-7.41-15.21-16.29-25.97
						c-8.87-10.76-25.73-22.2-53.79-10C1029.84,670.51,1028.03,704.09,1032.21,719.69z"/>
					<path class="st70" d="M1120.44,695.62c-4.66,1.61-14.34,5.7-25.68,10.19c-17.16,6.74-38,14.45-50.89,16.18
						c-6.04,0.81-10.31,0.29-11.63-2.3c-1.09-2.13-1.78-6.27-1.61-11.51c0.35-16.7,9.04-44.5,39.38-51.18
						c0.35-0.06,0.69-0.17,1.04-0.17C1110.13,649.05,1132.81,691.42,1120.44,695.62z"/>
					<path class="st71" d="M1097.87,691.31c0,5.12-1.09,10.08-3.11,14.51c-17.16,6.74-38,14.45-50.89,16.18
						c-5.58-3.28-10.19-8.06-13.24-13.82c0.35-16.7,9.04-44.5,39.38-51.18c0.35-0.06,0.69-0.17,1.04-0.17
						C1086.47,660.68,1097.87,674.67,1097.87,691.31z"/>
					
						<linearGradient id="SVGID_00000139996395025866911240000014658614944938314625_" gradientUnits="userSpaceOnUse" x1="1062.1051" y1="714.1681" x2="1062.1051" y2="668.5007">
						<stop  offset="0.016" style="stop-color:#E0B3D1"/>
						<stop  offset="0.9916" style="stop-color:#C2798B"/>
					</linearGradient>
					<path style="fill:url(#SVGID_00000139996395025866911240000014658614944938314625_);" d="M1084.94,691.33
						c0,12.61-10.22,22.83-22.83,22.83c-12.61,0-22.83-10.22-22.83-22.83c0-12.61,10.22-22.83,22.83-22.83
						C1074.72,668.5,1084.94,678.72,1084.94,691.33z"/>
					<path class="st73" d="M1119.89,678.31c0,0-16.46-28.29-56.32-17.92c-39.86,10.38-31.97,57.7-31.97,57.7
						s-14.85-34.45,15.26-59.73C1078.74,631.58,1114.07,666.17,1119.89,678.31z"/>
					<path class="st0" d="M1078.19,682.54c0,0,9.09-9.94,20.4-7.09L1078.19,682.54z"/>
				</g>
				<g>
					
						<linearGradient id="SVGID_00000047743212876573423060000014133874669759066278_" gradientUnits="userSpaceOnUse" x1="1212.4763" y1="614.8763" x2="1264.9708" y2="614.8763">
						<stop  offset="0.016" style="stop-color:#FFFFFF"/>
						<stop  offset="0.9916" style="stop-color:#EA9DC8"/>
					</linearGradient>
					<path style="fill:url(#SVGID_00000047743212876573423060000014133874669759066278_);" d="M1219.58,652.72
						c0,0-16.61-47.79,0.96-69.61c17.57-21.82,44.43,22.02,44.43,22.02L1219.58,652.72z"/>
					<path class="st18" d="M1219.56,658.15c-7.37-8.93-10.25-41.86,10.51-60.24s39.14,15.31,44.24,30.12
						c5.1,14.8-17.04,25.01-30.3,27.74C1230.75,658.49,1220.79,659.65,1219.56,658.15z"/>
					<path class="st70" d="M1268.86,639.25c-3.17,3.34-8.58,6.62-14.68,9.38c-6.56,2.99-13.93,5.35-20.15,6.51
						c-5.24,1.04-9.73,1.15-12.26,0.06c-1.21-0.58-2.01-1.38-2.19-2.48c-2.3-12.32-2.25-28.15,1.84-40.01
						c2.13-6.33,5.47-11.51,10.13-14.51c2.36-1.5,5.01-2.42,8.06-2.65C1260.34,593.83,1279.74,627.85,1268.86,639.25z"/>
					<path class="st71" d="M1256.6,633.84c0,5.24-0.86,10.3-2.42,14.8c-6.56,2.99-13.93,5.35-20.15,6.51
						c-1.9,1.04-3.97,1.55-6.16,1.55c-2.13,0-4.2-0.52-6.1-1.5c-1.21-0.58-2.01-1.38-2.19-2.48c-2.3-12.32-2.25-28.15,1.84-40.01
						c2.13-6.33,5.47-11.51,10.13-14.51C1245.55,599.53,1256.6,615.02,1256.6,633.84z"/>
					
						<linearGradient id="SVGID_00000181079985918106937420000013249036128377566592_" gradientUnits="userSpaceOnUse" x1="1231.627" y1="656.6969" x2="1231.627" y2="611.0428">
						<stop  offset="0.016" style="stop-color:#E0B3D1"/>
						<stop  offset="0.9916" style="stop-color:#C2798B"/>
					</linearGradient>
					<path style="fill:url(#SVGID_00000181079985918106937420000013249036128377566592_);" d="M1245.2,633.84
						c0,9.73-4.66,18.08-11.17,21.3c-1.9,1.04-3.97,1.55-6.16,1.55c-2.13,0-4.2-0.52-6.1-1.5c-1.21-0.58-2.01-1.38-2.19-2.48
						c-2.3-12.32-2.25-28.15,1.84-40.01c2.01-1.09,4.14-1.67,6.45-1.67C1237.43,611.04,1245.2,621.23,1245.2,633.84z"/>
					<path class="st73" d="M1218.06,641.99c0,0,1.46-36.24,22.56-43.39c21.1-7.15,31.38,27.11,31.38,27.11s-7.73-35.78-23.8-37.06
						C1232.11,587.37,1215.23,605.49,1218.06,641.99z"/>
					<path class="st0" d="M1246.45,622.88c0,0,9.09-9.94,20.4-7.09L1246.45,622.88z"/>
				</g>
				
					<linearGradient id="SVGID_00000124160933619093475570000017149861821634837890_" gradientUnits="userSpaceOnUse" x1="1173.5662" y1="765.9833" x2="1173.5662" y2="727.6226">
					<stop  offset="8.379890e-03" style="stop-color:#EA9DC8"/>
					<stop  offset="0.984" style="stop-color:#FFFFFF"/>
				</linearGradient>
				<path style="fill:url(#SVGID_00000124160933619093475570000017149861821634837890_);" d="M1161.59,727.62
					c0,0-0.38,26.53,3.79,33.39c4.18,6.86,25.43,1.72,25.43,1.72s-17.87,7.83-29.41-0.82
					C1149.86,753.26,1161.59,727.62,1161.59,727.62z"/>
				<path class="st77" d="M1139.12,816.04c0,0,108.63,16.3,149.21-37.02c0,0-17.16,34.73-65.65,42.97
					C1182.89,828.76,1139.12,816.04,1139.12,816.04z"/>
				
					<linearGradient id="SVGID_00000141456840236270564720000001093469204893588365_" gradientUnits="userSpaceOnUse" x1="1052.0398" y1="834.2296" x2="1088.5717" y2="834.2296" gradientTransform="matrix(-0.7872 0.6166 0.6166 0.7872 1474.6136 -503.9013)">
					<stop  offset="0.016" style="stop-color:#FFFFFF"/>
					<stop  offset="0.9916" style="stop-color:#F29DC8"/>
				</linearGradient>
				<path style="fill:url(#SVGID_00000141456840236270564720000001093469204893588365_);" d="M1154.51,793.42
					c0,0-20.01,13.17-14.92,40C1139.59,833.42,1116.67,810.93,1154.51,793.42z"/>
				<path class="st58" d="M954.02,885.4c13.81,4.24,40.46-11.92,40.46-11.92s-3.57,17.29-15.51,17.72
					C967.03,891.63,954.02,885.4,954.02,885.4z"/>
				<path class="st18" d="M1340.47,833.94c-10.08,44.79-42.71,90.66-80.45,106.6c-48.89,20.73-171.43,5.61-213.64-9.51
					c-14.99-5.36-29.04-20.16-42.9-39.69c3.02,2.71,52.35,46.43,140.11,48.57c90.66,2.27,153.91-35.09,167.02-48.7
					C1322.95,878.48,1338.58,838.86,1340.47,833.94z"/>
				
					<linearGradient id="SVGID_00000002371638887977020490000017053270685814839439_" gradientUnits="userSpaceOnUse" x1="1220.3138" y1="574.501" x2="1220.3138" y2="506.7465">
					<stop  offset="0" style="stop-color:#B877B8"/>
					<stop  offset="0.2337" style="stop-color:#9A6DBA"/>
					<stop  offset="0.5605" style="stop-color:#7762BB"/>
					<stop  offset="0.8276" style="stop-color:#615BBD"/>
					<stop  offset="1" style="stop-color:#5958BD"/>
				</linearGradient>
				<path style="fill:url(#SVGID_00000002371638887977020490000017053270685814839439_);" d="M1184.69,574.5c0,0-4.61-23.87,0-40.88
					v28.35c0,0,1.6-31.51,23.13-42.85l-18.48,34.49c0,0,29.19-39.71,44.19-45.96c15-6.24,22.23,21.64,23.86,25.86
					c1.63,4.22-0.63,16.21-0.63,16.21S1243.49,533.92,1184.69,574.5z"/>
				
					<linearGradient id="SVGID_00000178895027171842136110000003443637884656885156_" gradientUnits="userSpaceOnUse" x1="989.5758" y1="675.26" x2="989.5758" y2="583.5443" gradientTransform="matrix(0.9967 0.0808 -0.0808 0.9967 97.6964 -95.679)">
					<stop  offset="0" style="stop-color:#B877B8"/>
					<stop  offset="0.2337" style="stop-color:#9A6DBA"/>
					<stop  offset="0.5605" style="stop-color:#7762BB"/>
					<stop  offset="0.8276" style="stop-color:#615BBD"/>
					<stop  offset="1" style="stop-color:#5958BD"/>
				</linearGradient>
				<path style="fill:url(#SVGID_00000178895027171842136110000003443637884656885156_);" d="M1094.58,595.91
					c0,0-21.92-24.31-45.98-29.06l34.58,25.16c0,0-32.39-23.98-49.48-19.98c0,0-12.2-1.25-27.46,13.74
					c-19.52,19.18-36.55,66.7-36.55,66.7S1040.58,603.88,1094.58,595.91z"/>
				
					<linearGradient id="SVGID_00000034070587098975746370000004258784464138828164_" gradientUnits="userSpaceOnUse" x1="1059.6769" y1="929.075" x2="1059.6769" y2="769.1961">
					<stop  offset="0.016" style="stop-color:#FFFFFF"/>
					<stop  offset="0.9916" style="stop-color:#F29DC8"/>
				</linearGradient>
				<path style="opacity:0.4;fill:url(#SVGID_00000034070587098975746370000004258784464138828164_);" d="M976.78,777.43
					c29.05-37.4,106.02,62.07,152.29,109.02c46.26,46.95-27.74,51.22-82.66,31.58c-54.91-19.64-45.37-75.54-60.32-102
					C971.14,789.58,976.78,777.43,976.78,777.43z"/>
				<g>
					<path class="st82" d="M1274.31,582.57l34.38-21.98c0,0-0.37-15.83-6.81-13.78c-6.44,2.05-31.22,20.94-31.22,20.94
						L1274.31,582.57z"/>
					<path class="st83" d="M1304.35,681.04c-2.51,3.2-8.39,12.39-11.67,14.38c-25.57,15.62-91.48,26.76-99.92-95.07
						c-1.31-18.44,37.32-40.73,65.53-45.15c-0.76-3.14-1.02-6.41-1.64-9.35c-35.22,6.08-76.55,34.97-77.57,47.14
						c-0.36,4.42,0.22,10.88,1.83,18.69l-0.75-3.07c0,0-34.49-11.91-56.98,20.29c-1.47-2.37-2.91-4.35-4.2-5.83
						c-11.96-13.32-104.38-13.19-145.85,40.27c-17.29,22.28,20.61,100.38,58.98,117.02c34.95,15.17,96.53-0.83,108.34-45.9
						c8.54-32.46-0.16-68.82-10.13-91.74c2.8-5.76,18.42-33.74,52.86-21.64c6.11,22.66,18.93,52.11,38.51,73.62
						c24.78,27.21,68.1,23.11,89.66,3.77C1309.2,694.07,1306.51,685.46,1304.35,681.04z M1061.04,776.4
						c-45.86,4.16-95.4-67.47-80.01-102.36c19.49-44.11,112.74-61.46,127.99-36.55C1172.55,741.12,1097.08,773.2,1061.04,776.4z"/>
					
						<linearGradient id="SVGID_00000016787401453012488020000014239332231914048674_" gradientUnits="userSpaceOnUse" x1="1295.6866" y1="711.0519" x2="1295.6866" y2="550.1017" gradientTransform="matrix(1 0 0.0619 1.0161 -73.6305 -19.3241)">
						<stop  offset="0" style="stop-color:#26258A"/>
						<stop  offset="1" style="stop-color:#3C2C95"/>
					</linearGradient>
					<path style="fill:url(#SVGID_00000016787401453012488020000014239332231914048674_);" d="M1301.87,546.83
						c-53.71-24.33-112.28,19.4-113.75,36.62c-1.47,17.28,12.62,67.47,42.48,99.55c29.86,32.07,81.49,23.2,96.88-7.59
						C1342.86,644.62,1324.28,556.95,1301.87,546.83z M1301.58,683.7c-25.59,15.3-91.52,26.18-99.8-93.08
						c-2-28.68,65.5-58.26,100.06-30.79C1329.11,581.47,1334.16,664.18,1301.58,683.7z"/>
					<path class="st85" d="M1301.58,683.7c-25.59,15.3-91.52,26.18-99.8-93.08c-2-28.68,65.5-58.26,100.06-30.79
						C1329.11,581.47,1334.16,664.18,1301.58,683.7z"/>
					
						<linearGradient id="SVGID_00000011719182915143328470000002103120415183088572_" gradientUnits="userSpaceOnUse" x1="1096.3314" y1="779.0891" x2="1096.3314" y2="615.0994" gradientTransform="matrix(1 0 0.0619 1.0161 -73.6305 -19.3241)">
						<stop  offset="0" style="stop-color:#26258A"/>
						<stop  offset="1" style="stop-color:#3C2C95"/>
					</linearGradient>
					<path style="fill:url(#SVGID_00000011719182915143328470000002103120415183088572_);" d="M1127.98,612.9
						c-11.95-13.06-104.36-12.93-145.9,39.37c-17.32,21.83,20.48,98.27,58.83,114.59c34.93,14.85,96.55-0.83,108.42-44.93
						C1161.19,677.75,1139.93,625.96,1127.98,612.9z M1069.84,762.95c-45.87,4.1-95.32-66.07-79.88-100.19
						c19.54-43.21,112.82-60.18,128.04-35.79C1181.39,728.45,1105.87,759.82,1069.84,762.95z"/>
					<path class="st85" d="M1069.84,762.95c-45.87,4.1-95.32-66.07-79.88-100.19c19.54-43.21,112.82-60.18,128.04-35.79
						C1181.39,728.45,1105.87,759.82,1069.84,762.95z"/>
					<path class="st87" d="M1138.79,633.18c0,0,15.15-35.39,53.38-22.24l-2.98-12.24c0,0-34.6-11.68-57.1,19.96L1138.79,633.18z"/>
					
						<linearGradient id="SVGID_00000058566916507305916110000010857850211433240468_" gradientUnits="userSpaceOnUse" x1="974.033" y1="762.0137" x2="974.033" y2="688.2542" gradientTransform="matrix(1 0 0.0619 1.0161 -73.6305 -19.3241)">
						<stop  offset="0" style="stop-color:#26258A"/>
						<stop  offset="1" style="stop-color:#3C2C95"/>
					</linearGradient>
					<path style="fill:url(#SVGID_00000058566916507305916110000010857850211433240468_);" d="M978.89,680.01
						c0,0-13.36,5.3-18.67,9.45c-5.32,4.15-53.95,61.73-53.95,61.73l12.58,3.76c0,0,43.45-41.2,49.87-46.79
						c6.42-5.59,16.53-8.89,16.53-8.89L978.89,680.01z"/>
					<path class="st89" d="M962.02,688.21c-5.43,4.52-3.36,11.88,0.93,15.31c4.3,3.44,19.52-5,20.74-7.66
						c1.22-2.65-3.17-15.86-3.17-15.86S965.87,685.01,962.02,688.21z"/>
					<path class="st89" d="M1212.1,633.18c19.49-34.98,71.8,28.02,81.98,38.37c10.18,10.35,24.33-10.23,24.33-10.23
						s-10.87,33.33-54,24.93C1221.27,677.86,1212.1,633.18,1212.1,633.18z"/>
					<path class="st89" d="M1004.15,707.36c19.49-34.98,71.8,28.02,81.98,38.37c10.18,10.35,24.33-10.23,24.33-10.23
						s-10.87,33.33-54,24.93C1013.32,752.03,1004.15,707.36,1004.15,707.36z"/>
					<path class="st89" d="M1064.63,610.52c-2.47,1.47,34.34,0.37,46.06,9.01c11.72,8.64,25.5,34.06,31.38,32.65
						c5.88-1.41-5.25-29.77-19.21-39.77C1108.9,602.39,1068.81,608.03,1064.63,610.52z"/>
					<path class="st89" d="M1247.73,544.63c-3.59,1.95,25.71-1.67,44.56,6.37c18.84,8.04,27.18,34.72,29,35.18
						c1.82,0.45-4.58-31.08-19.82-38.66C1286.23,539.93,1259.71,538.11,1247.73,544.63z"/>
					<path class="st90" d="M1317.1,685.62c-8.99,2.9,3.13-20.43,7.67-27.64C1329.3,650.76,1333.1,680.45,1317.1,685.62z"/>
					<path class="st90" d="M1136.08,740.17c-7.74,2.5,2.7-17.59,6.6-23.8C1146.58,710.15,1149.85,735.72,1136.08,740.17z"/>
				</g>
				<g>
					
						<linearGradient id="SVGID_00000047040372094233771050000008743465677369746623_" gradientUnits="userSpaceOnUse" x1="1157.2595" y1="704.3801" x2="1261.5062" y2="704.3801">
						<stop  offset="0" style="stop-color:#FFB595"/>
						<stop  offset="0.984" style="stop-color:#FFC2A9"/>
					</linearGradient>
					<path style="fill:url(#SVGID_00000047040372094233771050000008743465677369746623_);" d="M1161.4,755.61
						c4.36,10.97,40.94,1.03,64.46-5.78c23.52-6.81,35.36-16.34,35.64-25.31c0.28-8.97-24.22-33.4-43.76-53.26
						c-19.53-19.85-34.86-27.12-47.99-20.76C1156.63,656.87,1153.84,736.57,1161.4,755.61z"/>
					
						<linearGradient id="SVGID_00000033334033549053151680000016662032368679171987_" gradientUnits="userSpaceOnUse" x1="1209.1898" y1="763.7421" x2="1209.1898" y2="666.5119">
						<stop  offset="8.379890e-03" style="stop-color:#F29DC8"/>
						<stop  offset="0.984" style="stop-color:#FFFFFF"/>
					</linearGradient>
					<path style="opacity:0.3;fill:url(#SVGID_00000033334033549053151680000016662032368679171987_);" d="M1253.49,741.1
						c20.52-9.83-6.94-38.88-19.67-46.04c-12.73-7.16-30.5-38.99-53.05-25.07c-22.55,13.93-29.83,84.65-16.84,91.46
						c12.99,6.82,32.84-3.7,44.18-4.88c11.35-1.18,22.92,5.27,34.06-10.22L1253.49,741.1z"/>
					
						<linearGradient id="SVGID_00000085233674575078070670000001549767807079367869_" gradientUnits="userSpaceOnUse" x1="1215.4296" y1="765.0511" x2="1215.4296" y2="713.2941">
						<stop  offset="8.379890e-03" style="stop-color:#F29DC8"/>
						<stop  offset="0.984" style="stop-color:#FFFFFF"/>
					</linearGradient>
					<path style="fill:url(#SVGID_00000085233674575078070670000001549767807079367869_);" d="M1244.35,745.69
						c0,0,20.01-8.03,22.34-18.09c2.33-10.07-9.45-8.52-31.4-13.24c-21.95-4.72-36.58,7.06-48.59,20.58
						c-12.01,13.51-23.71,20.22-22.77,26.53c0.94,6.31,24.69,2.97,30.15,0.06c5.46-2.92,6.83-5.66,14.03-4.94
						c7.2,0.72,19.53-2.8,25.01-6.92C1238.61,745.54,1244.35,745.69,1244.35,745.69z"/>
					<path class="st94" d="M1247.57,710.27c-19.39-7.17-47.35,6.59-62.43,4.37c-15.08-2.22-8.83-23.28,0-35.32
						c8.83-12.03,28.95,5.48,39.91,14.03C1236,701.92,1247.57,710.27,1247.57,710.27z"/>
					<path class="st95" d="M1237.33,747.24c6.84-7.61,12.1-10.87,14.93-9.76c4.31,1.69-7.69,9.44-10.08,8.88
						C1239.79,745.8,1237.33,747.24,1237.33,747.24z"/>
					
						<linearGradient id="SVGID_00000075884429491997905860000005482323613711439749_" gradientUnits="userSpaceOnUse" x1="1237.326" y1="719.6073" x2="1264.0033" y2="719.6073">
						<stop  offset="8.379890e-03" style="stop-color:#EA9DC8"/>
						<stop  offset="0.984" style="stop-color:#FFDBD6"/>
					</linearGradient>
					<path style="fill:url(#SVGID_00000075884429491997905860000005482323613711439749_);" d="M1237.33,747.24
						c0,0,15.28-19.74,12.92-30.17c-2.36-10.42-12.34-25.1-12.34-25.1s14.4,13.64,22.96,26.37c8.56,12.73-2.14,21.35-11.49,24.67
						C1240.04,746.33,1237.33,747.24,1237.33,747.24z"/>
					<path class="st97" d="M1161.4,758.93c11.14,11.34,37.6,30.15,65.65,26.57c28.06-3.58,36.95-60.99,36.95-60.99
						s-3.52-0.76-12.48-2.17c-8.95-1.41-17.71-15.64-42.34-4.25C1190.2,726.87,1179.71,751.97,1161.4,758.93z"/>
					<path class="st95" d="M1195.03,759.72c0,0,7.06-7.26,12.14-9.15c5.07-1.89,5.84,3.38,4.61,4.58c-1.23,1.19-7.5,0.5-11.18,2.19
						C1196.92,759.03,1195.03,759.72,1195.03,759.72z"/>
				</g>
				
					<linearGradient id="SVGID_00000145777312831450506610000011951013294290125503_" gradientUnits="userSpaceOnUse" x1="939.0659" y1="623.4417" x2="1040.0868" y2="623.4417" gradientTransform="matrix(0.9967 0.0808 -0.0808 0.9967 97.6964 -95.679)">
					<stop  offset="0.016" style="stop-color:#FFFFFF"/>
					<stop  offset="0.9916" style="stop-color:#F29DC8"/>
				</linearGradient>
				<path style="fill:url(#SVGID_00000145777312831450506610000011951013294290125503_);" d="M1085.03,596.72
					c0,0-33.69-21.38-55.57-20.1c-21.88,1.28-45.45,37.29-48.12,49.85c-2.67,12.56,26.02-5.87,56.75-15.95
					C1068.83,600.43,1085.03,596.72,1085.03,596.72z"/>
				<path class="st18" d="M1190.2,570.77c0,0,22.84-53.57,41.75-59.94c17.47-5.88,19.19,20,14.64,29.79
					C1242.04,550.41,1225.08,546.1,1190.2,570.77z"/>
				
					<linearGradient id="SVGID_00000029750283523335520520000003454095267414032547_" gradientUnits="userSpaceOnUse" x1="1227.188" y1="857.5021" x2="1227.188" y2="823.3838">
					<stop  offset="0.016" style="stop-color:#FFFFFF"/>
					<stop  offset="0.9916" style="stop-color:#F29DC8"/>
				</linearGradient>
				<path style="fill:url(#SVGID_00000029750283523335520520000003454095267414032547_);" d="M1195.03,835.02
					c0,0,39.2,3.63,64.33-11.64c0,0-3.52,32.23-22.02,34.02C1218.82,859.2,1195.03,835.02,1195.03,835.02z"/>
				<g>
					
						<linearGradient id="SVGID_00000083071649701740883670000005489501948270773902_" gradientUnits="userSpaceOnUse" x1="1082.4618" y1="434.1198" x2="1062.686" y2="309.2602">
						<stop  offset="0" style="stop-color:#3E2987"/>
						<stop  offset="0.5684" style="stop-color:#2C2F90"/>
						<stop  offset="1" style="stop-color:#243294"/>
					</linearGradient>
					<path style="fill:url(#SVGID_00000083071649701740883670000005489501948270773902_);" d="M937.42,429.99
						c0,0,99.89-127.8,189.65-130.03c89.75-2.23,99.52,106.75,90.92,112.54c-8.59,5.78,6.34-86.03-88.92-97.63
						C1055.33,305.9,958.61,399.15,937.42,429.99z"/>
					
						<linearGradient id="SVGID_00000153663685186694952850000011193032778055447709_" gradientUnits="userSpaceOnUse" x1="1087.2765" y1="775.3942" x2="1013.281" y2="308.2047">
						<stop  offset="0" style="stop-color:#3E2987"/>
						<stop  offset="0.5684" style="stop-color:#2C2F90"/>
						<stop  offset="1" style="stop-color:#243294"/>
					</linearGradient>
					<path style="fill:url(#SVGID_00000153663685186694952850000011193032778055447709_);" d="M1273.44,437.79
						c-32.26,28.67-48.32,16.88-48.32,16.88s-10.77,10.02-66.91,14.3c-56.07,4.28-104.46,5.86-104.46,5.86
						c-0.57,14.93-7.37,22.05-7.37,22.05c-23.44-19.09-110.19-33.77-122.35,2.84c-12.1,36.6,7.37,108.17,7.37,108.17
						s-15.5,35.85-17.89,70.43c-2.39,34.65,63.25,99.1,63.25,99.1l-7.75,16.7c-14.93-23.88-67.1-40.38-67.1-40.38
						c-67.73-54.68-77.93-118.38-85.11-176.84c-7.12-58.53,88.77-76.42,107.23-127.32c18.52-50.97,69.05-148.05,147.04-149.63
						c71.63-1.45,109.94,80.14,128.58,104.08c1.7,2.14,3.15,3.78,4.54,4.91C1220.96,422.67,1273.44,437.79,1273.44,437.79z"/>
					
						<linearGradient id="SVGID_00000016038843765230583740000017823828483302270626_" gradientUnits="userSpaceOnUse" x1="967.6537" y1="469.3589" x2="946.6856" y2="336.9718">
						<stop  offset="0" style="stop-color:#3E2987"/>
						<stop  offset="0.5684" style="stop-color:#2C2F90"/>
						<stop  offset="1" style="stop-color:#243294"/>
					</linearGradient>
					<path style="fill:url(#SVGID_00000016038843765230583740000017823828483302270626_);" d="M940.39,439.37
						c0,0-4.8-40.76,12.51-73.61c17.31-32.86,51.33-32.59,51.33-35.98c0,0-56.7-4.93-76.4,45.38c-19.7,50.31-10.15,81.87-16.71,99.6
						C904.56,492.49,940.39,439.37,940.39,439.37z"/>
					
						<linearGradient id="SVGID_00000148638923594375906870000008573321889391558058_" gradientUnits="userSpaceOnUse" x1="924.2216" y1="428.5612" x2="1273.4351" y2="428.5612">
						<stop  offset="0.016" style="stop-color:#FFFFFF"/>
						<stop  offset="0.9916" style="stop-color:#C2798B"/>
					</linearGradient>
					<path style="fill:url(#SVGID_00000148638923594375906870000008573321889391558058_);" d="M1273.44,437.79
						c-32.26,28.67-48.32,16.88-48.32,16.88s-10.77,10.02-66.91,14.3c-56.07,4.28-104.46,5.86-104.46,5.86
						c-62.37-43.47-125.94-26.33-129.53-25.33c42.4-25.26,112.71,14.36,141.37,15.18c28.73,0.76,110.44-14.36,110.44-14.36
						s-67.47-50.46-120.9-53.3c-53.36-2.84-114.72,42.34-114.72,42.34s70.18-78.94,136.77-51.16
						c66.65,27.78,121.59,31.12,122.47,15.81c1.7,2.14,3.15,3.78,4.54,4.91C1220.96,422.67,1273.44,437.79,1273.44,437.79z"/>
					
						<linearGradient id="SVGID_00000065043780559412322210000004579402500148448702_" gradientUnits="userSpaceOnUse" x1="889.1352" y1="742.2577" x2="889.1352" y2="493.4222">
						<stop  offset="0.016" style="stop-color:#FFFFFF"/>
						<stop  offset="0.9916" style="stop-color:#C2798B"/>
					</linearGradient>
					<path style="fill:url(#SVGID_00000065043780559412322210000004579402500148448702_);" d="M927.17,493.42
						c0,0-67.46,76.15-75.18,140.09c-7.72,63.94,36.66,108.75,36.66,108.75s-26.48-83.94-9.17-144.05
						C896.8,538.09,927.17,493.42,927.17,493.42z"/>
					
						<linearGradient id="SVGID_00000132794802582461260620000015270991248808564100_" gradientUnits="userSpaceOnUse" x1="907.1866" y1="749.8259" x2="907.1866" y2="607.9242">
						<stop  offset="0.016" style="stop-color:#FFFFFF"/>
						<stop  offset="0.9916" style="stop-color:#C2798B"/>
					</linearGradient>
					<path style="fill:url(#SVGID_00000132794802582461260620000015270991248808564100_);" d="M931.42,607.92
						c0,0-33.42,29.24-44.76,60.58c-11.34,31.34,7.03,78.3,7.03,78.3l5.09,3.02C898.77,749.83,877.7,672.38,931.42,607.92z"/>
					<path class="st18" d="M947.76,431.85c0,0,58.04-69.83,113.06-83.56c55.02-13.73,83.31,83.56,83.31,83.56
						s-44.54-35.06-98.18-34.84C992.3,397.24,947.76,431.85,947.76,431.85z"/>
					<path class="st18" d="M927.17,493.42c0,0,7.23-29.94,46.02-38.89c38.8-8.95,73.18,42.35,73.18,42.35
						S998.73,475.01,927.17,493.42z"/>
					<path class="st18" d="M795.98,606.64c0,0,17.16-59.2,46.41-86.26c29.25-27.06,61.72-29.36,61.72-29.36
						s-42.01,50.01-53.01,66.44c-11,16.43-34.29,19.43-34.29,19.43s-8.85,15.63-13.55,22.65C798.56,606.57,800,608.15,795.98,606.64
						z"/>
					<path class="st106" d="M1047.78,303.37c45.76-1.02,64.28,16.87,73.83,35.97c9.55,19.1-46.03,7.14-68.17,11.13
						c-22.15,3.99,24.99-6.72,45.39-11.13C1119.23,334.94,1096.11,299.63,1047.78,303.37z"/>
					<path class="st106" d="M1023.86,398.98c34.49-1.94,13.15,25.75-6.89,36.65c-20.04,10.9-41.79,5.38-56.91,5.47
						c-15.11,0.1,37.81-4.68,58.89-18.61C1040.04,408.58,1023.86,398.98,1023.86,398.98z"/>
				</g>
				<path class="st107" d="M1008.56,776.77c-70.46-17.61-8.46,50.51,45.88,79.56C1108.78,885.39,1057.95,789.12,1008.56,776.77z"/>
			</g>
			<path class="st108" d="M1697.54,895.6c0,0,47.59,8.85,53.75,73.36l-11.71,0.24c0,0-1.69-21.07-6.39-38.63
				C1728.45,912.9,1697.54,895.6,1697.54,895.6z"/>
			<path class="st106" d="M1190.34,1265.94c-37.16-14.43,40.61-42.3,62.74-71.43c22.13-29.13,26.3-80.45,31.68-79.86
				c5.37,0.6,25.07,51.33-3.58,106.24C1252.52,1275.8,1190.34,1265.94,1190.34,1265.94z"/>
			<path class="st29" d="M995.88,1636.89c-10.27,72.7,33.85,35.22,59.9-6.56c26.05-41.78,29.78-110.9,29.4-118.12
				c-0.37-7.22-41.77,28.97-57.48,45.2S999,1614.8,995.88,1636.89z"/>
			<path class="st106" d="M1878.37,1222.47c-9.83,5.48-24.82,10.02-45.74,6.55c-42.4-7.06-48.89-52.29-48.89-52.29
				c0.57-3.59,9.58-3.47,9.58-3.47s-2.33,17.33,1.95,24.32c22.49,37.04,76.8,22.68,75.98,9.95c-0.82-12.73-2.84-13.04-2.84-13.04
				l1.01-10.27C1869.42,1184.23,1887.06,1191.47,1878.37,1222.47z"/>
			<path class="st18" d="M1792.74,1185.88c0,0,10.36,27.32,37.91,29.93s37.77-21.32,37.77-21.32l-2.93,21.52
				C1865.49,1216.02,1804.14,1241,1792.74,1185.88z"/>
			<path class="st13" d="M914.31,1601.08c0,0-51.99-10.05-117.16,38.53c-42.31,31.53,71.67-42.42,117.12-128.77
				c24.57-46.68-22.15-117.61-7.91-130.59c40.59-37,60.46,195.63,60.46,195.63L914.31,1601.08z"/>
			<path class="st60" d="M947.72,1278.33c1.75,19.1,34.24,19.56,66.86-5.11c32.63-24.67,37.8-167.12,40.19-173.48
				c2.39-6.37-44.31,58.27-64.15,87.75C970.78,1216.95,946.51,1265.14,947.72,1278.33z"/>
			<path class="st109" d="M1467.94,1287.31c-2.94,9.38,28.36,159.13,23.45,232.27c-4.9,73.14-49.06,240.6-49.06,240.6
				s77.5-270.51,66.79-355.66C1498.42,1319.37,1467.94,1287.31,1467.94,1287.31z"/>
			<path class="st109" d="M963.68,1545.35c0,0-3.32-103.79,3.13-150.7c6.45-46.9,27.54-82.08,27.54-82.08s-33.43,51.13-41.14,86.52
				C945.49,1434.48,963.68,1545.35,963.68,1545.35z"/>
			<path class="st109" d="M926.64,1295.79c7.56-9.85,34.62,4.87,58.49,1.69c23.87-3.18,44.96-19.16,44.96-19.16
				s-39.35,36.12-49.34,36.67C970.77,1315.53,933.41,1300.07,926.64,1295.79z"/>
			<path class="st110" d="M1765.17,1367.12c0,0,66.3,88.17,100.32,108.94c34.02,20.78,51.64,3.39,57.1,10.2
				c5.46,6.81,4.17,25.95,4.17,25.95S1805.91,1481.71,1765.17,1367.12z"/>
			<path class="st14" d="M1167.77,1760.18c-15.15,11.42,35.04,248.56,71.83,319.28c36.79,70.72,107.08-201.28,109.99-277.84
				c2.91-76.56-73.2,95.5-114.98,79.98C1192.84,1866.08,1192.69,1741.4,1167.77,1760.18z"/>
			<path class="st109" d="M1296.35,1030.28c0,0,134.52,85.91,176.25,113.89C1472.61,1144.17,1411.81,1067.47,1296.35,1030.28z"/>
			<path class="st22" d="M899.61,2520.03c0,0,0.37-49.94,4.35-57.1c3.98-7.16,20.1,59.06,20.1,59.06L899.61,2520.03z"/>
			<path class="st22" d="M1561.29,2520.03c0,0,0-83.36-6.37-88.93c-6.37-5.57-22.13,90.46-22.13,90.46L1561.29,2520.03z"/>
			<path class="st111" d="M730.03,1929.35c0,0-27.46-140.69-11.09-251.31c16.37-110.62,116.98-325.25,116.98-325.25
				s-116.49,192.19-131.06,336.62S730.03,1929.35,730.03,1929.35z"/>
			<path class="st111" d="M835.92,1352.79c7.16,2.39-4.77-31.65,26.26-43.57c31.04-11.92-19.82-69.9-27.22-92.25
				c-7.4-22.35,75.63-47.74,75.63-47.74s-58.88,13.59-91.25,37.99C819.35,1207.23,806.08,1225.07,835.92,1352.79z"/>
			<path class="st111" d="M1513.79,1024.01c0,0,74.66-6.25,97.69,9.67s17.35,127.74,17.36,144.07c0.01,16.32,16.14,14.04,22.98,24
				c31.04,45.22,32.21,105.1,42.72,111.03c10.5,5.93,25.92,24.5,25.92,24.5l-66.85-142.05c0,0,1.59-145.23-37.4-175.27
				C1616.2,1019.95,1584.96,1014.05,1513.79,1024.01z"/>
			<path class="st111" d="M849.36,2446.78c-30.27-17.55,46.05-164.5,70.52-250.44c24.47-85.95,15.11-171.5,15.11-171.5
				s-18.34,133.01-50.15,237.03c-31.8,104.02-59.22,159.22-76.35,184.32C808.49,2446.19,838.53,2451.33,849.36,2446.78z"/>
			<path class="st111" d="M1603.6,1616.05c0,0,67.27,87.33,110.27,85.31c43.01-2.03,182.45-143.66,182.45-143.66
				s-119.2,141.89-171.11,163.37c0,0-19.48,6.29-44.95-13.27C1654.8,1688.22,1603.6,1616.05,1603.6,1616.05z"/>
			<path class="st111" d="M1585.17,2279.5c-11.94-12.33,40.59-49.44,49.34-124.72c8.75-75.28-11.59-210.92-11.59-210.92
				s28.54,119.81,20.07,230.21C1634.51,2284.47,1585.17,2279.5,1585.17,2279.5z"/>
			<path class="st112" d="M1561.66,1535.46c0,0,45.7,126.51,92.69,126.51c47,0,128.37-132.63,122.93-155.5
				c-5.44-22.86-55.47-135.77-61.53-150.09c-6.06-14.32-58.35,42.71-58.35,42.71s-7.2-57.12-30.57-13.51
				c-23.37,43.61-36.5-131.86-59.18-133.06C1544.98,1251.33,1535.38,1429.24,1561.66,1535.46z"/>
		</g>
	</g>
</g>
</svg>
